<svg xmlns="http://www.w3.org/2000/svg" width="24" height="24" viewBox="0 0 24 24">
    <g id="Grupo_3" data-name="Grupo 3" transform="translate(94 -359)">
        <path id="Caminho_51" data-name="Caminho 51" d="M0,0H24V24H0Z" transform="translate(-94 359)" fill="#fff"
            opacity="0" />
        <g id="tooltips" transform="translate(-96 357)">
            <path id="Caminho_21" data-name="Caminho 21"
                d="M11.707,15.209a2.761,2.761,0,0,1,.125-.869,3.121,3.121,0,0,1,.34-.722,4.685,4.685,0,0,1,.475-.628c.175-.2.355-.388.54-.585l.385-.421a2.391,2.391,0,0,0,.32-.432,1.889,1.889,0,0,0,.22-.508,2.257,2.257,0,0,0,.08-.64,1.417,1.417,0,0,0-.355-1.022,1.26,1.26,0,0,0-.951-.372,1.777,1.777,0,0,0-1.236.394,2.486,2.486,0,0,0-.62,1.394L9,10.525a6.319,6.319,0,0,1,.4-1.383,3.656,3.656,0,0,1,.73-1.12,3.357,3.357,0,0,1,1.151-.749A4.319,4.319,0,0,1,12.908,7a3.873,3.873,0,0,1,2.642.842,2.9,2.9,0,0,1,.951,2.29,3.909,3.909,0,0,1-.105.962,3.227,3.227,0,0,1-.275.733,3.03,3.03,0,0,1-.4.574c-.145.175-.3.344-.455.519l-.535.585a4.777,4.777,0,0,0-.44.557,2.922,2.922,0,0,0-.3.585,1.878,1.878,0,0,0-.11.661v.3H11.707Z"
                transform="translate(1.25 0.75)" fill="#f2f5f0" />
            <path id="Caminho_22" data-name="Caminho 22" d="M13.33,14.809H11.153v2.738H13.33Z"
                transform="translate(1.788 2.702)" fill="#f2f5f0" />
            <path id="Caminho_23" data-name="Caminho 23"
                d="M14,22.75A8.75,8.75,0,1,0,5.25,14,8.75,8.75,0,0,0,14,22.75ZM24,14A10,10,0,1,1,14,4,10,10,0,0,1,24,14Z"
                fill="#f2f5f0" fill-rule="evenodd" />
        </g>
    </g>
</svg>