<svg xmlns="http://www.w3.org/2000/svg" width="24" height="24" viewBox="0 0 24 24">
    <g id="Grupo_4" data-name="Grupo 4" transform="translate(94 -326)">
        <rect id="Retângulo_23" data-name="Retângulo 23" width="24" height="24" transform="translate(-94 326)"
            fill="#fff" opacity="0" />
        <g id="config" transform="translate(-95.5 324.5)">
            <path id="Caminho_7" data-name="Caminho 7"
                d="M12.311,4.677a.034.034,0,0,0,0,.007V6.767a.588.588,0,0,1-.445.571,8.53,8.53,0,0,0-1.658.7.588.588,0,0,1-.681-.111L8.053,6.447,6.438,8.069,7.914,9.551a.588.588,0,0,1,.094.706,5.881,5.881,0,0,0-.678,1.622.588.588,0,0,1-.574.461H4.678a.036.036,0,0,0,0,.007v2.306s0,.006,0,.006H6.83a.588.588,0,0,1,.558.4h0l0,.006L7.4,15.1l.037.107c.033.093.082.228.145.389.126.324.3.753.515,1.178a.588.588,0,0,1-.11.677L6.512,18.931l0,0,1.538,1.618,1.473-1.478a.588.588,0,0,1,.709-.1,5.825,5.825,0,0,0,1.614.68.588.588,0,0,1,.46.574v2.083s0,.006,0,.006h2.305a.033.033,0,0,0,0-.007V20.233a.588.588,0,0,1,.445-.57,6.922,6.922,0,0,0,1.629-.684.588.588,0,0,1,.71.1l1.473,1.479,1.615-1.548-1.476-1.482a.588.588,0,0,1-.126-.641l.741-1.786a.588.588,0,0,1,.543-.363h2.153a.035.035,0,0,0,0-.007V12.421s0-.006,0-.006H20.244a.588.588,0,0,1-.571-.446,6.982,6.982,0,0,0-.682-1.637.588.588,0,0,1,.094-.706l1.476-1.482L18.947,6.521,17.474,8a.588.588,0,0,1-.79.039,2.834,2.834,0,0,0-1.019-.512,3.3,3.3,0,0,0-.378-.084l-.1-.014-.022,0s0,0,.041-.587v.588h-.041a.589.589,0,0,1-.547-.587V4.683s0-.006,0-.006h0l0,0a.038.038,0,0,1-.006-.008v.006H12.311Zm0,0v0l0,0a.039.039,0,0,1-.008.006h.006Zm3.482,1.669V4.683A1.174,1.174,0,0,0,14.612,3.5h-2.3a1.174,1.174,0,0,0-1.181,1.183V6.331a9.839,9.839,0,0,0-1.073.464L8.877,5.608a1.168,1.168,0,0,0-1.649,0L5.6,7.244a1.174,1.174,0,0,0,0,1.649L6.77,10.07a6.979,6.979,0,0,0-.464,1.093H4.681A1.174,1.174,0,0,0,3.5,12.347v2.306a1.174,1.174,0,0,0,1.181,1.184H6.416c.021.056.044.117.069.182.1.25.225.563.376.894L5.672,18.107a1.174,1.174,0,0,0-.006,1.643l1.552,1.633.01.01a1.168,1.168,0,0,0,1.649,0l1.17-1.174a6.928,6.928,0,0,0,1.086.464v1.635A1.174,1.174,0,0,0,12.314,23.5h2.3a1.174,1.174,0,0,0,1.181-1.183V20.672a8.4,8.4,0,0,0,1.083-.457l1.173,1.178a1.168,1.168,0,0,0,1.643.006l1.626-1.558.01-.01a1.174,1.174,0,0,0,0-1.649l-1.205-1.21.44-1.06h1.756A1.174,1.174,0,0,0,23.5,14.728V12.421a1.174,1.174,0,0,0-1.181-1.183H20.684a8.467,8.467,0,0,0-.457-1.09L21.4,8.967a1.174,1.174,0,0,0,0-1.649l-1.63-1.637a1.168,1.168,0,0,0-1.649,0L16.988,6.821a4.24,4.24,0,0,0-1-.425C15.918,6.377,15.853,6.36,15.793,6.346Z"
                fill="#f2f5f0" fill-rule="evenodd" />
            <path id="Caminho_8" data-name="Caminho 8"
                d="M10.176,12.529a2.353,2.353,0,1,0,2.353-2.353A2.378,2.378,0,0,0,10.176,12.529Zm2.353,3.529a3.529,3.529,0,1,1,3.529-3.529A3.554,3.554,0,0,1,12.529,16.059Z"
                transform="translate(0.971 0.971)" fill="#f2f5f0" fill-rule="evenodd" />
        </g>
    </g>
</svg>