<svg xmlns="http://www.w3.org/2000/svg" width="24" height="24" viewBox="0 0 24 24">
    <g id="home-icon" transform="translate(91 -84)">
        <rect id="Retângulo_17" data-name="Retângulo 17" width="24" height="24" transform="translate(-91 84)"
            fill="#fff" opacity="0" />
        <g id="home" transform="translate(-89 86)">
            <path id="Caminho_14" data-name="Caminho 14"
                d="M14.5,6.042l-7.95,7.919H7.583v9.207h2.455V20.6a4.532,4.532,0,0,1,4.1-4.565h0a4.429,4.429,0,0,1,4.751,4.413v2.716h2.531v-9.2h1.025Zm.583-1.3a.826.826,0,0,0-1.165,0L4.744,13.881a.827.827,0,0,0,.582,1.413h.923V23.2a1.3,1.3,0,0,0,1.3,1.3h2.991a.83.83,0,0,0,.829-.829V20.6a3.2,3.2,0,0,1,2.865-3.235,3.085,3.085,0,0,1,2.416.9l0,0a3.07,3.07,0,0,1,.905,2.183v3.22a.83.83,0,0,0,.829.829h3.068a1.314,1.314,0,0,0,1.3-1.312V15.295h.923a.827.827,0,0,0,.578-1.412Z"
                transform="translate(-4.5 -4.5)" fill="#f2f5f0" fill-rule="evenodd" />
        </g>
    </g>
</svg>