<svg xmlns="http://www.w3.org/2000/svg" width="24" height="24" viewBox="0 0 24 24">
    <g id="Grupo_7" data-name="Grupo 7" transform="translate(93 -183)">
        <rect id="Retângulo_20" data-name="Retângulo 20" width="24" height="24" transform="translate(-93 183)"
            fill="#fff" opacity="0" />
        <g id="text" transform="translate(-96 181)">
            <path id="Caminho_16" data-name="Caminho 16" d="M7,6v6H17.667V6Zm9.333,1.333h-8v3.333h8Z"
                transform="translate(0.667 0.667)" fill="#f2f5f0" fill-rule="evenodd" />
            <path id="Caminho_17" data-name="Caminho 17" d="M7,16.833h6V15.5H7Z" transform="translate(0.667 3.833)"
                fill="#f2f5f0" />
            <path id="Caminho_18" data-name="Caminho 18" d="M16.333,14.833H7V13.5h9.333Z"
                transform="translate(0.667 3.167)" fill="#f2f5f0" />
            <path id="Caminho_19" data-name="Caminho 19" d="M7,12.833h9.333V11.5H7Z" transform="translate(0.667 2.5)"
                fill="#f2f5f0" />
            <path id="Caminho_20" data-name="Caminho 20"
                d="M7,4A2,2,0,0,0,5,6V22a2,2,0,0,0,2,2H23a2,2,0,0,0,2-2V14a2,2,0,0,0-2-2H21.667v1.333H23a.667.667,0,0,1,.667.667v8a.667.667,0,0,1-.667.667H21.667A.667.667,0,0,1,21,22V6a2,2,0,0,0-2-2ZM19.781,22.667A2,2,0,0,1,19.667,22V6A.667.667,0,0,0,19,5.333H7A.667.667,0,0,0,6.333,6V22A.667.667,0,0,0,7,22.667Z"
                transform="translate(0)" fill="#f2f5f0" fill-rule="evenodd" />
        </g>
    </g>
</svg>