<svg width="15" height="16" viewBox="0 0 15 16" fill="none" xmlns="http://www.w3.org/2000/svg">
<path fill-rule="evenodd" clip-rule="evenodd" d="M0 0.510539C0 0.228643 0.223858 0.00012207 0.5 0.00012207H12.563C13.9095 0.00012207 15 1.11337 15 2.48793V14.4241C15 14.914 14.6095 15.3126 14.1296 15.3126C14.0133 15.3126 13.9006 15.2712 13.811 15.1955L7.68973 10.0279C7.58181 9.93759 7.42218 9.93729 7.31429 10.0277L1.1889 15.1956C1.09928 15.2713 0.986642 15.3126 0.87037 15.3126C0.390524 15.3126 0 14.914 0 14.4241V0.510539ZM1 1.02096V14.0307L6.67777 9.24033L6.67861 9.23961C7.15577 8.83884 7.84793 8.83884 8.32509 9.23961L8.32605 9.24042L14 14.0304V2.48793C14 1.67716 13.3572 1.02096 12.563 1.02096H1Z" fill="#F2F5F0"/>
</svg>
