<svg width="19" height="17" viewBox="0 0 19 17" fill="none" xmlns="http://www.w3.org/2000/svg">
<path fill-rule="evenodd" clip-rule="evenodd" d="M9.07421 11.995L13.3529 7.71634L14.1484 8.51183L9.07421 13.586L4 8.51183L4.7955 7.71633L9.07421 11.995Z" fill="#F2F5F0"/>
<path fill-rule="evenodd" clip-rule="evenodd" d="M9.63671 0.0626226L9.63671 11.9951L8.51171 11.9951L8.51171 0.0626226L9.63671 0.0626226Z" fill="#F2F5F0"/>
<path fill-rule="evenodd" clip-rule="evenodd" d="M0.0624992 15.2501L0.0624994 10.7501L1.1875 10.7501L1.1875 15.2501C1.1875 15.5608 1.43934 15.8126 1.75 15.8126L16.375 15.8126C16.6857 15.8126 16.9375 15.5608 16.9375 15.2501L16.9375 10.7501L18.0625 10.7501L18.0625 15.2501C18.0625 16.1821 17.307 16.9376 16.375 16.9376L1.75 16.9376C0.818019 16.9376 0.0624991 16.1821 0.0624992 15.2501Z" fill="#F2F5F0"/>
</svg>
