<svg xmlns="http://www.w3.org/2000/svg" width="40" height="40" viewBox="0 0 40 40">
    <g id="bookmark-icon" transform="translate(-1610 -10)" opacity="0.3">
        <rect id="Retângulo_5" data-name="Retângulo 5" width="40" height="40" transform="translate(1610 10)"
            fill="#f2f5f0" opacity="0" />
        <path id="bookmark"
            d="M4.5,5.033A.533.533,0,0,1,5.033,4.5H17.9a2.6,2.6,0,0,1,2.6,2.6V19.572a.93.93,0,0,1-.928.928.533.533,0,0,1-.34-.122l-6.529-5.4a.319.319,0,0,0-.4,0l-6.534,5.4a.533.533,0,0,1-.34.122.93.93,0,0,1-.928-.928Zm1.067.533V19.16l6.056-5.005h0a1.385,1.385,0,0,1,1.756,0h0l6.052,5.005V7.1A1.532,1.532,0,0,0,17.9,5.567Z"
            transform="translate(1617.5 17.5)" fill="#f2f5f0" fill-rule="evenodd" />
    </g>
</svg>