<svg xmlns="http://www.w3.org/2000/svg" width="24" height="24" viewBox="0 0 24 24">
    <g id="Grupo_6" data-name="Grupo 6" transform="translate(94 -237)" opacity="0.3">
        <rect id="Retângulo_21" data-name="Retângulo 21" width="24" height="24" transform="translate(-94 237)"
            fill="#f2f5f0" opacity="0" />
        <g id="user-details" transform="translate(-95.5 235.5)">
            <path id="Caminho_24" data-name="Caminho 24"
                d="M8.955,6.712A2.678,2.678,0,0,0,6.328,9.439a2.678,2.678,0,0,0,2.626,2.727,2.678,2.678,0,0,0,2.626-2.727A2.678,2.678,0,0,0,8.955,6.712ZM5.116,9.439A3.89,3.89,0,0,1,8.955,5.5a3.89,3.89,0,0,1,3.838,3.939,3.89,3.89,0,0,1-3.838,3.939A3.89,3.89,0,0,1,5.116,9.439ZM23.5,10.955H16.227V9.742H23.5Zm-20,5.151A3.068,3.068,0,0,1,6.53,13v1.212a1.857,1.857,0,0,0-1.818,1.893v3.94H13.2v-3.94a1.857,1.857,0,0,0-1.818-1.893V13a3.068,3.068,0,0,1,3.03,3.106v5.152H3.5Zm20-1.515H16.227V13.379H23.5Zm0,3.636H16.227V17.015H23.5Z"
                transform="translate(0 0)" fill="#f2f5f0" fill-rule="evenodd" />
        </g>
    </g>
</svg>