<svg xmlns="http://www.w3.org/2000/svg" width="40" height="40" viewBox="0 0 40 40">
    <g id="notification-icon" transform="translate(-1650 -10)" opacity="0.3">
        <rect id="Retângulo_6" data-name="Retângulo 6" width="40" height="40" transform="translate(1650 10)"
            fill="#f2f5f0" opacity="0" />
        <g id="bell" transform="translate(1658 18)">
            <path id="Caminho_1" data-name="Caminho 1"
                d="M10.446,17.606a1.553,1.553,0,0,0,3.1,0h.933a2.484,2.484,0,0,1-4.965,0Z" fill="#f2f5f0"
                fill-rule="evenodd" />
            <path id="Caminho_2" data-name="Caminho 2"
                d="M6.473,10.338A5.416,5.416,0,0,1,12,5.04a5.416,5.416,0,0,1,5.527,5.3q0,.225,0,.448c0,.3,0,.592,0,.888v0A4.71,4.71,0,0,0,18.707,15l0,0a.964.964,0,0,1,.289.678v.709a.969.969,0,0,1-.979.959H5.978A.969.969,0,0,1,5,16.388v-.709A.965.965,0,0,1,5.289,15l0,0a4.729,4.729,0,0,0,1.181-3.323v0c0-.3,0-.591,0-.888Q6.473,10.562,6.473,10.338ZM12,5.981a4.479,4.479,0,0,0-4.594,4.357q0,.221,0,.443c0,.3,0,.6,0,.895a5.66,5.66,0,0,1-1.462,4l0,0a.072.072,0,0,0-.013.017v.7l0,.005a.058.058,0,0,0,.041.014H18.021a.06.06,0,0,0,.041-.014l0,0v-.7a.074.074,0,0,0-.012-.016,5.642,5.642,0,0,1-1.461-3.994c0-.3,0-.6,0-.895q0-.222,0-.443A4.48,4.48,0,0,0,12,5.981Z"
                fill="#f2f5f0" fill-rule="evenodd" />
            <path id="Caminho_3" data-name="Caminho 3"
                d="M12,5.412c-.435,0-.739-.143-.739.209h-.933a1.674,1.674,0,0,1,3.345,0h-.933C12.739,5.268,12.435,5.412,12,5.412Z"
                fill="#f2f5f0" fill-rule="evenodd" />
        </g>
    </g>
</svg>