<svg xmlns="http://www.w3.org/2000/svg" width="28" height="28" viewBox="0 0 28 28">
  <g id="apple-music" transform="translate(-977.934 818)">
    <path id="Trazado_94" data-name="Trazado 94" d="M294.934.683A13.317,13.317,0,1,0,308.251,14,13.318,13.318,0,0,0,294.934.683ZM280.934,14a14,14,0,1,1,14,14A14,14,0,0,1,280.934,14Z" transform="translate(697 -818)" fill="#f2f5f0" fill-rule="evenodd"/>
    <path id="Trazado_95" data-name="Trazado 95" d="M292.467,19.538a2.939,2.939,0,0,1-.018.321,1.673,1.673,0,0,1-.478.957,2.207,2.207,0,0,1-.4.349,2.515,2.515,0,0,1-1,.378,2.056,2.056,0,0,1-1.977-.464,1.734,1.734,0,0,1-.443-.917,1.5,1.5,0,0,1,.358-1.305,2.914,2.914,0,0,1,1.243-.617c.084-.023.169-.045.254-.064.732-.168,1.213-.148,1.422-.375s.189-.652.189-1.412V9.2a.488.488,0,0,1,.078-.29.8.8,0,0,1,.485-.294l.012,0,.128-.028.2-.041.269-.053.326-.064.377-.073.418-.08.452-.086.477-.09L295.338,8l.5-.095.5-.094.5-.093.48-.09.457-.085.424-.079.385-.072.335-.062.28-.052.214-.04a.627.627,0,0,1,.5.027.594.594,0,0,1,.211.435,1.336,1.336,0,0,1,.009.167v9.941a2.4,2.4,0,0,1-.277,1.339,2.07,2.07,0,0,1-.967.706,3.588,3.588,0,0,1-.691.2,2.376,2.376,0,0,1-1.487-.142,2.064,2.064,0,0,1-.463-.3,1.416,1.416,0,0,1-.492-1.221,1.866,1.866,0,0,1,.1-.478,1.378,1.378,0,0,1,.52-.669,2.765,2.765,0,0,1,.933-.46,6.662,6.662,0,0,1,.7-.152c.213-.035.429-.048.64-.092.348-.073.655-.264.656-.689,0-.1,0-.2,0-.3V11.08a.409.409,0,0,0-.057-.265.339.339,0,0,0-.314-.116l-.021,0c-.059.007-.118.018-.177.028l-.336.059-.466.085-.565.1-.634.118-.672.126-.681.128-.659.125-.606.115-.525.1-.412.078-.269.051a.429.429,0,0,0-.259.116.649.649,0,0,0-.164.442C292.48,12.882,292.467,19.531,292.467,19.538Z" transform="translate(697 -818)" fill="#f2f5f0"/>
  </g>
</svg>
