<svg xmlns="http://www.w3.org/2000/svg" width="28" height="28" viewBox="0 0 28 28">
  <g id="facebook" transform="translate(-697 818)">
    <path id="Trazado_75" data-name="Trazado 75" d="M14,.683A13.317,13.317,0,1,0,27.317,14,13.317,13.317,0,0,0,14,.683ZM0,14A14,14,0,1,1,14,28,14,14,0,0,1,0,14Z" transform="translate(697 -818)" fill="#f2f5f0" fill-rule="evenodd"/>
    <path id="Trazado_76" data-name="Trazado 76" d="M11.746,15.707V22.4a.181.181,0,0,0,.2.2h3.073a.181.181,0,0,0,.2-.2V13.932h2.254a.181.181,0,0,0,.2-.2l.2-2.6a.181.181,0,0,0-.2-.2H15.229V9.083a.758.758,0,0,1,.751-.751h1.707a.181.181,0,0,0,.2-.2V5.6a.181.181,0,0,0-.2-.2H14.751A3.133,3.133,0,0,0,11.61,8.537v2.39H10.039a.181.181,0,0,0-.2.2v2.6a.181.181,0,0,0,.2.2H11.61v1.776Z" transform="translate(697 -818)" fill="#f2f5f0" fill-rule="evenodd"/>
  </g>
</svg>
