<svg xmlns="http://www.w3.org/2000/svg" width="28" height="28" viewBox="0 0 28 28">
  <g id="instagram" transform="translate(-857.534 818)">
    <path id="Trazado_80" data-name="Trazado 80" d="M174.534.683A13.317,13.317,0,1,0,187.851,14,13.317,13.317,0,0,0,174.534.683ZM160.534,14a14,14,0,1,1,14,14A14,14,0,0,1,160.534,14Z" transform="translate(697 -818)" fill="#f2f5f0" fill-rule="evenodd"/>
    <path id="Trazado_81" data-name="Trazado 81" d="M180.026,9.516a1.008,1.008,0,1,1-1.008-1.008A1.008,1.008,0,0,1,180.026,9.516ZM174.534,16.8a2.8,2.8,0,1,1,2.8-2.8A2.8,2.8,0,0,1,174.534,16.8Zm0-7.114A4.314,4.314,0,1,0,178.848,14,4.313,4.313,0,0,0,174.534,9.686Zm0-2.573c2.243,0,2.509.009,3.394.049a4.649,4.649,0,0,1,1.56.289,2.785,2.785,0,0,1,1.595,1.594,4.693,4.693,0,0,1,.289,1.56c.04.886.049,1.151.049,3.394s-.009,2.509-.049,3.394a4.667,4.667,0,0,1-.289,1.56,2.785,2.785,0,0,1-1.595,1.594,4.651,4.651,0,0,1-1.56.289c-.885.04-1.151.049-3.394.049s-2.509-.009-3.394-.049a4.648,4.648,0,0,1-1.56-.289,2.78,2.78,0,0,1-1.594-1.594,4.66,4.66,0,0,1-.29-1.56c-.04-.886-.049-1.151-.049-3.394s.009-2.509.049-3.394a4.66,4.66,0,0,1,.29-1.56,2.78,2.78,0,0,1,1.594-1.594,4.652,4.652,0,0,1,1.56-.289C172.026,7.122,172.291,7.114,174.534,7.114Zm0-1.514c-2.281,0-2.567.01-3.463.051a6.165,6.165,0,0,0-2.039.39A4.3,4.3,0,0,0,166.575,8.5a6.189,6.189,0,0,0-.39,2.039c-.041.9-.051,1.182-.051,3.463s.01,2.567.051,3.463a6.189,6.189,0,0,0,.39,2.039,4.3,4.3,0,0,0,2.457,2.457,6.165,6.165,0,0,0,2.039.391c.9.041,1.182.05,3.463.05s2.568-.01,3.463-.05a6.16,6.16,0,0,0,2.039-.391,4.3,4.3,0,0,0,2.457-2.457,6.16,6.16,0,0,0,.391-2.039c.04-.9.05-1.182.05-3.463s-.01-2.567-.05-3.463a6.16,6.16,0,0,0-.391-2.039,4.3,4.3,0,0,0-2.457-2.457A6.16,6.16,0,0,0,178,5.651C177.1,5.61,176.815,5.6,174.534,5.6Z" transform="translate(697 -818)" fill="#f2f5f0" fill-rule="evenodd"/>
  </g>
</svg>
