<svg xmlns="http://www.w3.org/2000/svg" width="28" height="28" viewBox="0 0 28 28">
  <g id="linkedin" transform="translate(-737.133 818)">
    <path id="Trazado_77" data-name="Trazado 77" d="M54.133.683A13.317,13.317,0,1,0,67.45,14,13.317,13.317,0,0,0,54.133.683ZM40.133,14a14,14,0,1,1,14,14A14,14,0,0,1,40.133,14Z" transform="translate(697 -818)" fill="#f2f5f0" fill-rule="evenodd"/>
    <path id="Trazado_78" data-name="Trazado 78" d="M47.85,20.488V10.927h3v9.561Zm1.5-14.341a1.707,1.707,0,1,1-1.707,1.707A1.65,1.65,0,0,1,49.352,6.146Z" transform="translate(697 -818)" fill="#f2f5f0"/>
    <path id="Trazado_79" data-name="Trazado 79" d="M55.635,10.927v1.3a3.333,3.333,0,0,1,2.8-1.571c3,0,3.551,1.98,3.551,4.576v5.259h-3V15.844c0-1.093,0-2.527-1.571-2.527s-1.776,1.229-1.776,2.459v4.781h-3V10.927Z" transform="translate(697 -818)" fill="#f2f5f0"/>
  </g>
</svg>
