<svg xmlns="http://www.w3.org/2000/svg" width="28" height="28" viewBox="0 0 28 28">
  <g id="soudcloud" transform="translate(-897.667 818)">
    <path id="Trazado_82" data-name="Trazado 82" d="M214.667.683A13.317,13.317,0,1,0,227.984,14,13.317,13.317,0,0,0,214.667.683ZM200.667,14a14,14,0,1,1,14,14A14,14,0,0,1,200.667,14Z" transform="translate(697 -818)" fill="#f2f5f0" fill-rule="evenodd"/>
    <path id="Trazado_84" data-name="Trazado 84" d="M212.54,17.6h.632V10.818a4.58,4.58,0,0,0-.632-.344Z" transform="translate(697 -818)" fill="#f2f5f0"/>
    <path id="Trazado_85" data-name="Trazado 85" d="M211.193,10.217V17.6h.631V10.259a2.35,2.35,0,0,0-.547-.043Z" transform="translate(697 -818)" fill="#f2f5f0"/>
    <path id="Trazado_90" data-name="Trazado 90" d="M213.845,10.3v7.3h.632V9.7A2.864,2.864,0,0,0,213.845,10.3Z" transform="translate(697 -818)" fill="#f2f5f0"/>
    <path id="Trazado_83" data-name="Trazado 83" d="M222.224,12.62a3.219,3.219,0,0,0-.926.172A4.3,4.3,0,0,0,217.045,8.8a4,4,0,0,0-1.894.472V17.6h7.073a2.468,2.468,0,0,0,2.442-2.49A2.442,2.442,0,0,0,222.224,12.62Z" transform="translate(697 -818)" fill="#f2f5f0"/>
    <path id="Trazado_86" data-name="Trazado 86" d="M209.888,17.6h.631V10.3a3.653,3.653,0,0,0-.631.215Z" transform="translate(697 -818)" fill="#f2f5f0"/>
    <path id="Trazado_87" data-name="Trazado 87" d="M208.583,11.676V17.6h.631V10.989A2.425,2.425,0,0,0,208.583,11.676Z" transform="translate(697 -818)" fill="#f2f5f0"/>
    <path id="Trazado_88" data-name="Trazado 88" d="M207.277,17.6h.632V12.749a1.663,1.663,0,0,0-.632-.129Z" transform="translate(697 -818)" fill="#f2f5f0"/>
    <path id="Trazado_89" data-name="Trazado 89" d="M205.972,17.3a3.914,3.914,0,0,0,.632.258V12.663a1.964,1.964,0,0,0-.632.258Z" transform="translate(697 -818)" fill="#f2f5f0"/>
    <path id="Trazado_91" data-name="Trazado 91" d="M204.667,15.11a2.648,2.648,0,0,0,.632,1.674V13.479A2.446,2.446,0,0,0,204.667,15.11Z" transform="translate(697 -818)" fill="#f2f5f0"/>
  </g>
</svg>
