<svg xmlns="http://www.w3.org/2000/svg" width="28" height="28" viewBox="0 0 28 28">
  <g id="spotify" transform="translate(-937.8 818)">
    <path id="Trazado_92" data-name="Trazado 92" d="M254.8.683A13.317,13.317,0,1,0,268.117,14,13.317,13.317,0,0,0,254.8.683ZM240.8,14a14,14,0,1,1,14,14A14,14,0,0,1,240.8,14Z" transform="translate(697 -818)" fill="#f2f5f0" fill-rule="evenodd"/>
    <path id="Trazado_93" data-name="Trazado 93" d="M253.33,8.8a18.216,18.216,0,0,0-3.16.219,12.593,12.593,0,0,0-2.261.51,1.045,1.045,0,0,0-.652,1.328,1.068,1.068,0,0,0,1.337.681,17.1,17.1,0,0,1,4.308-.623,20.171,20.171,0,0,1,2.842.129,18.679,18.679,0,0,1,3.394.666,12.971,12.971,0,0,1,2.7,1.147,1.047,1.047,0,0,0,1.381-.252,1.021,1.021,0,0,0-.062-1.385,1.8,1.8,0,0,0-.51-.347,14.934,14.934,0,0,0-3.412-1.342A21.379,21.379,0,0,0,253.33,8.8Zm-.085,3.913c-.395.01-.752.019-1.109.038a14.735,14.735,0,0,0-3.494.6.874.874,0,0,0-.614,1.133.891.891,0,0,0,1.1.571c.166-.043.334-.1.5-.143a15.145,15.145,0,0,1,5.741-.262,13.183,13.183,0,0,1,5.131,1.738.885.885,0,0,0,1.209-.271.9.9,0,0,0-.3-1.262,12.029,12.029,0,0,0-1.752-.9A17.061,17.061,0,0,0,253.245,12.717Zm-.462,3.742c-.357.014-.714.034-1.066.066a19.252,19.252,0,0,0-2.695.438.706.706,0,1,0,.315,1.375c.233-.043.466-.09.7-.138a16.922,16.922,0,0,1,2.894-.334,13.263,13.263,0,0,1,1.9.081,11.119,11.119,0,0,1,3.16.8c.491.2.948.471,1.419.718a.7.7,0,0,0,.671-1.238,12.044,12.044,0,0,0-1.738-.866A13.359,13.359,0,0,0,252.783,16.459Z" transform="translate(697 -818)" fill="#f2f5f0"/>
  </g>
</svg>
