<svg xmlns="http://www.w3.org/2000/svg" width="28" height="28" viewBox="0 0 28 28">
  <g id="twitter" transform="translate(-817.4 818)">
    <path id="Trazado_71" data-name="Trazado 71" d="M134.4.683A13.317,13.317,0,1,0,147.717,14,13.317,13.317,0,0,0,134.4.683ZM120.4,14a14,14,0,1,1,14,14A14,14,0,0,1,120.4,14Z" transform="translate(697 -818)" fill="#f2f5f0" fill-rule="evenodd"/>
    <path id="Trazado_72" data-name="Trazado 72" d="M139.248,17.142a9.374,9.374,0,0,0,1.571-3.21,13.48,13.48,0,0,0,.41-3.278c0-.137.137-.137.205-.2A8.637,8.637,0,0,0,142.8,9.083a.518.518,0,0,0,.068-.273c0-.068,0,0-.068,0a4.9,4.9,0,0,1-1.708.478,2.17,2.17,0,0,0,.82-.751,2.147,2.147,0,0,0,.546-1.024V7.444h-.068a6.68,6.68,0,0,1-2.049.751c-.068,0-.068,0-.136-.068l-.205-.2a2.867,2.867,0,0,0-.956-.615,3.679,3.679,0,0,0-1.5-.273,3.673,3.673,0,0,0-2.6,1.366,3.688,3.688,0,0,0-.683,1.366A3.41,3.41,0,0,0,134.2,11.2l-2.186-.342a10.007,10.007,0,0,1-4.848-3.073.128.128,0,0,0-.205,0,3.52,3.52,0,0,0,.614,4.166,1.833,1.833,0,0,0,.41.342,4.518,4.518,0,0,1-1.366-.342c-.068-.068-.136,0-.136.068v.41a3.649,3.649,0,0,0,2.185,2.868.988.988,0,0,0,.478.137,5.594,5.594,0,0,1-1.3.068c-.069,0-.137,0-.069.137a3.724,3.724,0,0,0,2.732,2.322.509.509,0,0,1,.341.068,4.7,4.7,0,0,1-1.912,1.024,5.851,5.851,0,0,1-2.868.341h-.205c-.068,0,0,.068.068.137a3.026,3.026,0,0,0,.478.273,11.146,11.146,0,0,0,1.3.615,10.755,10.755,0,0,0,7.854-.2A10.845,10.845,0,0,0,139.248,17.142Z" transform="translate(697 -818)" fill="#f2f5f0"/>
    <path id="Trazado_73" data-name="Trazado 73" d="M130.985,20.966Z" transform="translate(697 -818)" fill="#f2f5f0" fill-rule="evenodd"/>
    <path id="Trazado_74" data-name="Trazado 74" d="M131.531,20.966c.342,0,0-.068,0,0Z" transform="translate(697 -818)" fill="#f2f5f0" fill-rule="evenodd"/>
  </g>
</svg>
