<svg xmlns="http://www.w3.org/2000/svg" width="28" height="28" viewBox="0 0 28 28">
  <g id="youtube" transform="translate(-777.267 818)">
    <path id="Trazado_69" data-name="Trazado 69" d="M94.267.683A13.317,13.317,0,1,0,107.584,14,13.317,13.317,0,0,0,94.267.683ZM80.267,14a14,14,0,1,1,14,14A14,14,0,0,1,80.267,14Z" transform="translate(697 -818)" fill="#f2f5f0" fill-rule="evenodd"/>
    <path id="Trazado_70" data-name="Trazado 70" d="M98.775,19.873a3.672,3.672,0,0,0,3.687-3.688V11.746a3.672,3.672,0,0,0-3.687-3.688H89.282a3.672,3.672,0,0,0-3.688,3.688v4.439a3.673,3.673,0,0,0,3.688,3.688ZM92.287,16.6a.3.3,0,0,1-.41-.273V11.815c0-.2.546-.341.751-.2l4.1,2.185c.137.068.341.341.2.41Z" transform="translate(697 -818)" fill="#f2f5f0"/>
  </g>
</svg>
