<svg xmlns="http://www.w3.org/2000/svg" width="24" height="24" viewBox="0 0 24 24">
  <path id="check-icon-research" d="M9.574.635a11.621,11.621,0,0,1,8.2,1.281l.188-.329a12,12,0,1,0,3.866,3.53l-.311.217A11.621,11.621,0,1,1,9.574.635Zm8.3,6.411a.159.159,0,0,1,.223,0l.857.869a.173.173,0,0,1,0,.236l-8.718,8.839a.039.039,0,0,1-.029.011.04.04,0,0,1-.029-.011L5.263,12.013a.052.052,0,0,1,0-.068l1.022-1.036a.042.042,0,0,1,.057,0L9.882,14.5a.457.457,0,0,0,.633.008l0,0,2.372-2.4-.356-.351L10.2,14.111,6.7,10.558a.542.542,0,0,0-.769,0L4.907,11.594a.552.552,0,0,0,0,.77L9.822,17.34a.542.542,0,0,0,.769,0L19.31,8.5a.673.673,0,0,0,0-.938l-.857-.869a.659.659,0,0,0-.935,0l-2.594,2.63.356.351Zm-4,4.054.911-.924-.356-.351-.911.924Z" fill="#068e87" fill-rule="evenodd"/>
</svg>
