<svg width="12" height="12" viewBox="0 0 12 12" fill="none" xmlns="http://www.w3.org/2000/svg">
<path d="M5.35215 9.44114C5.34621 9.44425 5.34033 9.44749 5.33452 9.45085L2.97214 10.8147C2.93468 10.833 2.91055 10.8339 2.89998 10.8331C2.88781 10.8322 2.88081 10.8285 2.87678 10.8254C2.87264 10.8223 2.86857 10.8175 2.86574 10.8094C2.86329 10.8023 2.85839 10.783 2.86695 10.7471L2.86705 10.7471L2.86923 10.737L3.46255 7.99676C3.47008 7.96199 3.47388 7.92652 3.47388 7.89095C3.47388 7.88551 3.47388 7.88002 3.47388 7.8745C3.47394 7.76304 3.474 7.63428 3.45286 7.50115C3.42877 7.34943 3.38117 7.20965 3.30662 7.05314C3.27936 6.99592 3.24147 6.9444 3.19497 6.90133L1.19308 5.04725C1.17794 5.02906 1.17126 5.01187 1.16836 4.99605C1.16462 4.9757 1.1666 4.95336 1.17389 4.93347C1.18059 4.91518 1.18898 4.90618 1.19214 4.90339C1.19262 4.90336 1.1932 4.90335 1.1939 4.90335C1.21659 4.90335 1.23925 4.9018 1.26173 4.89872L3.96212 4.52901C4.16574 4.52201 4.35971 4.45927 4.52656 4.31916C4.68431 4.18669 4.78098 4.01436 4.84926 3.87103C4.85334 3.86246 4.85718 3.85378 4.86076 3.845L5.92218 1.24537C5.94474 1.20173 5.96709 1.1826 5.97828 1.17509C5.99038 1.16696 5.99751 1.16663 5.99984 1.16663C6.00217 1.16663 6.00929 1.16696 6.02139 1.17509C6.03258 1.1826 6.05494 1.20173 6.07749 1.24537L7.13891 3.845C7.1425 3.85378 7.14633 3.86246 7.15041 3.87103C7.21869 4.01437 7.31536 4.18669 7.47311 4.31916C7.63997 4.45927 7.83394 4.52201 8.03756 4.52901L10.7379 4.89872C10.7535 4.90085 10.7692 4.90225 10.7848 4.90291C10.7952 4.91405 10.8107 4.93617 10.8219 4.96921C10.8294 4.99131 10.8322 5.00985 10.8329 5.02314C10.8292 5.02636 10.8256 5.02964 10.822 5.03297L8.80471 6.90133C8.79706 6.90841 8.78963 6.91573 8.78244 6.92328C8.59329 7.12183 8.35246 7.56031 8.54752 8.0448L9.13044 10.737L9.13034 10.737L9.13272 10.7471C9.14129 10.783 9.13638 10.8023 9.13393 10.8094C9.13111 10.8175 9.12704 10.8223 9.12289 10.8254C9.11886 10.8285 9.11187 10.8322 9.0997 10.8331C9.08912 10.8339 9.06499 10.833 9.02753 10.8147L6.66515 9.45085C6.62656 9.42857 6.58517 9.41155 6.54207 9.40024C6.31162 9.33977 6.10336 9.29045 5.91084 9.29045C5.68055 9.29045 5.50923 9.3587 5.35215 9.44114Z" fill="#D3D1CB" stroke="#D3D1CB" stroke-miterlimit="10" stroke-linejoin="round"/>
</svg>
