<svg width="12" height="14" viewBox="0 0 12 14" fill="none" xmlns="http://www.w3.org/2000/svg">
<path fill-rule="evenodd" clip-rule="evenodd" d="M9 4V6H3V4C3 2.34315 4.34315 1 6 1C7.65685 1 9 2.34315 9 4ZM2 6V4C2 1.79086 3.79086 0 6 0C8.20914 0 10 1.79086 10 4V6H11C11.5523 6 12 6.44772 12 7V12.5C12 13.3284 11.3284 14 10.5 14H1.5C0.671573 14 0 13.3284 0 12.5V7C0 6.44772 0.447715 6 1 6H2ZM2 7H1V12.5C1 12.7761 1.22386 13 1.5 13H10.5C10.7761 13 11 12.7761 11 12.5V7H10H2ZM6.5 10.3662C6.7989 10.1933 7 9.87014 7 9.5C7 8.94771 6.55228 8.5 6 8.5C5.44772 8.5 5 8.94771 5 9.5C5 9.87014 5.2011 10.1933 5.5 10.3662V11.5H6.5V10.3662Z" fill="#D3D1CB"/>
</svg>
