<svg xmlns="http://www.w3.org/2000/svg" width="24" height="24" viewBox="0 0 24 24">
	<g id="Grupo_25" data-name="Grupo 25" transform="translate(-574 910)">
		<rect id="Rectángulo_52" data-name="Rectángulo 52" width="24" height="24" transform="translate(574 -910)"
			fill="#f2f5f0" opacity="0" />
		<g id="Grupo_24" data-name="Grupo 24" transform="translate(574.336 -909.5)">
			<path id="Trazado_55" data-name="Trazado 55"
				d="M7.018,3.5A1.492,1.492,0,0,0,5.5,4.964V18.036A1.492,1.492,0,0,0,7.018,19.5h6.375a1.492,1.492,0,0,0,1.518-1.464V13.369h-.941v4.668a.552.552,0,0,1-.577.523H7.018a.552.552,0,0,1-.577-.523V4.964a.552.552,0,0,1,.577-.523h6.375a.552.552,0,0,1,.577.523v2.8h.941v-2.8A1.492,1.492,0,0,0,13.394,3.5Z"
				fill="#f2f5f0" />
			<path id="Trazado_56" data-name="Trazado 56" d="M9,5.5h2.824v.941H9Z" transform="translate(-0.206 -0.118)"
				fill="#f2f5f0" />
			<path id="Trazado_57" data-name="Trazado 57" d="M8,16.441h2.824V15.5H8Z" transform="translate(-0.147 -0.706)"
				fill="#f2f5f0" />
			<path id="Trazado_58" data-name="Trazado 58" d="M10.824,18.441H8V17.5h2.824Z" transform="translate(-0.147 -0.824)"
				fill="#f2f5f0" />
			<path id="Trazado_59" data-name="Trazado 59"
				d="M12.658,11.623q0,.03,0,.061a.941.941,0,1,0,1.818-.343l2.652-3.315.1.862.7-.08-.212-1.87a.353.353,0,0,0-.39-.311l-1.87.212.08.7.855-.1-2.648,3.309a.952.952,0,0,0-.142-.011.937.937,0,0,0-.417.1l-1.467-.978q0-.03,0-.061a.941.941,0,1,0-1.85.244L7.146,12.763l.666.666,2.718-2.718a.944.944,0,0,0,.661-.066Z"
				transform="translate(-0.097 -0.184)" fill="#f2f5f0" />
		</g>
	</g>
</svg>
