<svg width="16" height="16" viewBox="0 0 16 16" fill="none" xmlns="http://www.w3.org/2000/svg">
<path fill-rule="evenodd" clip-rule="evenodd" d="M0.5 1C0.5 0.723858 0.723858 0.5 1 0.5H13.063C14.4095 0.5 15.5 1.59052 15.5 2.93704V14.6296C15.5 15.1095 15.1095 15.5 14.6296 15.5C14.5133 15.5 14.4006 15.4594 14.311 15.3853L8.18973 10.3231C8.08181 10.2347 7.92218 10.2344 7.81429 10.3229L1.6889 15.3854C1.59928 15.4595 1.48664 15.5 1.37037 15.5C0.890524 15.5 0.5 15.1095 0.5 14.6296V1ZM1.5 1.5V14.2442L7.17777 9.55163L7.17861 9.55093C7.65577 9.15833 8.34793 9.15833 8.82509 9.55093L8.82605 9.55172L14.5 14.244V2.93704C14.5 2.14281 13.8572 1.5 13.063 1.5H1.5Z" fill="#F2F5F0"/>
</svg>
