<svg width="15" height="16" viewBox="0 0 15 16" fill="none" xmlns="http://www.w3.org/2000/svg">
<path fill-rule="evenodd" clip-rule="evenodd" d="M0 0.510417C0 0.228521 0.223858 0 0.5 0H12.563C13.9095 0 15 1.11324 15 2.48781V14.424C15 14.9138 14.6095 15.3125 14.1296 15.3125C14.0133 15.3125 13.9006 15.2711 13.811 15.1954L7.68973 10.0278C7.58181 9.93746 7.42218 9.93716 7.31429 10.0275L1.1889 15.1955C1.09928 15.2711 0.986642 15.3125 0.87037 15.3125C0.390524 15.3125 0 14.9138 0 14.424V0.510417ZM1 1.02083V14.0305L6.67777 9.24021L6.67861 9.23949C7.15577 8.83871 7.84793 8.83871 8.32509 9.23949L8.32605 9.2403L14 14.0303V2.48781C14 1.67703 13.3572 1.02083 12.563 1.02083H1Z" fill="#068E87"/>
</svg>
