<svg width="12" height="12" viewBox="0 0 12 12" fill="none" xmlns="http://www.w3.org/2000/svg">
<path d="M5.3524 9.44126C5.34645 9.44438 5.34058 9.44761 5.33477 9.45097L2.97239 10.8148C2.93493 10.8332 2.9108 10.834 2.90022 10.8332C2.88805 10.8324 2.88106 10.8286 2.87702 10.8255C2.87288 10.8224 2.86881 10.8176 2.86598 10.8095C2.86354 10.8025 2.85863 10.7831 2.86719 10.7472L2.86729 10.7472L2.86947 10.7371L3.4628 7.99688C3.47033 7.96212 3.47412 7.92665 3.47412 7.89107C3.47412 7.88563 3.47413 7.88015 3.47413 7.87462C3.47418 7.76316 3.47424 7.6344 3.4531 7.50127C3.42901 7.34956 3.38142 7.20978 3.30686 7.05326C3.2796 6.99604 3.24171 6.94452 3.19521 6.90145L1.19333 5.04737C1.17819 5.02918 1.17151 5.01199 1.1686 4.99618C1.16486 4.97583 1.16684 4.95349 1.17413 4.9336C1.18083 4.9153 1.18922 4.90631 1.19239 4.90351C1.19286 4.90348 1.19345 4.90347 1.19415 4.90347C1.21683 4.90347 1.23949 4.90192 1.26197 4.89885L3.96236 4.52913C4.16598 4.52214 4.35995 4.45939 4.52681 4.31928C4.68456 4.18682 4.78123 4.01449 4.84951 3.87115C4.85358 3.86258 4.85742 3.85391 4.86101 3.84512L5.92243 1.24549C5.94498 1.20185 5.96734 1.18272 5.97853 1.17521C5.99063 1.16708 5.99775 1.16675 6.00008 1.16675C6.00241 1.16675 6.00953 1.16708 6.02163 1.17521C6.03282 1.18272 6.05518 1.20185 6.07773 1.24549L7.13915 3.84512C7.14274 3.85391 7.14657 3.86258 7.15065 3.87115C7.21893 4.01449 7.3156 4.18682 7.47336 4.31928C7.64021 4.45939 7.83418 4.52214 8.0378 4.52913L10.7382 4.89885C10.7537 4.90098 10.7694 4.90237 10.7851 4.90303C10.7954 4.91417 10.8109 4.93629 10.8222 4.96934C10.8297 4.99143 10.8324 5.00997 10.8332 5.02327C10.8295 5.02649 10.8259 5.02976 10.8223 5.03309L8.80495 6.90145C8.7973 6.90853 8.78988 6.91585 8.78269 6.9234C8.59353 7.12195 8.35271 7.56043 8.54776 8.04492L9.13069 10.7371L9.13058 10.7372L9.13297 10.7472C9.14153 10.7831 9.13663 10.8025 9.13418 10.8095C9.13135 10.8176 9.12728 10.8224 9.12314 10.8256C9.1191 10.8286 9.11211 10.8324 9.09994 10.8332C9.08937 10.834 9.06523 10.8332 9.02778 10.8148L6.66539 9.45097C6.62681 9.42869 6.58541 9.41167 6.54232 9.40036C6.31187 9.33989 6.1036 9.29057 5.91108 9.29057C5.68079 9.29057 5.50948 9.35882 5.3524 9.44126Z" stroke="#D3D1CB" stroke-miterlimit="10" stroke-linejoin="round"/>
</svg>
