<svg width="200" height="40" viewBox="0 0 200 40" fill="none" xmlns="http://www.w3.org/2000/svg">
<path d="M12.7002 0.804199C8.86973 0.804199 5.7525 3.8001 5.59399 7.5844C5.69966 7.5844 5.77891 7.5844 5.88458 7.5844C8.49989 7.5844 10.6133 9.68678 10.6133 12.2885C10.6133 13.6288 10.0585 14.8376 9.16032 15.7049C8.94898 15.9414 8.76406 16.1779 8.60556 16.4144C11.5907 20.0936 15.7382 21.355 15.7382 21.355C15.7382 21.355 14.3645 16.4933 17.6138 12.998C18.9611 11.7103 19.8065 9.89702 19.8065 7.89975C19.8065 3.95778 16.6364 0.804199 12.7002 0.804199Z" fill="#3C8583"/>
<path d="M8.34159 21.644L7.8925 21.5126C7.81325 21.4864 6.2018 20.987 4.53751 19.6468C2.9789 18.3853 1.10328 16.1516 0.971191 12.5775C0.971191 12.4724 0.971191 12.3935 0.971191 12.2884C0.971191 9.55532 3.21665 7.32153 5.96404 7.32153C8.71143 7.32153 10.9569 9.55532 10.9569 12.2884C10.9569 13.655 10.4021 14.9164 9.4247 15.8625C7.39057 18.0437 8.23592 21.171 8.23592 21.1973L8.34159 21.644ZM5.93763 7.82085C3.45441 7.82085 1.4467 9.81812 1.4467 12.2884C1.4467 12.3673 1.4467 12.4461 1.4467 12.5512C1.55237 15.2843 2.68831 17.5181 4.8281 19.2526C5.93763 20.1461 7.04715 20.6454 7.62833 20.8819C7.44341 19.8833 7.25849 17.4393 9.02844 15.5208C9.92663 14.6799 10.4021 13.5236 10.4021 12.2884C10.4286 9.81812 8.42084 7.82085 5.93763 7.82085Z" fill="#3C8583"/>
<path d="M156.225 38.279V34.2844H156.463V36.0452C156.569 35.8087 156.753 35.6247 156.991 35.4933C157.229 35.3619 157.52 35.3093 157.837 35.3093C158.286 35.3093 158.655 35.4407 158.92 35.7298C159.184 35.9926 159.316 36.3605 159.316 36.8336C159.316 37.3066 159.184 37.6745 158.893 37.9373C158.629 38.2264 158.233 38.3578 157.784 38.3578C157.123 38.3578 156.674 38.1213 156.436 37.6482V38.2527L156.225 38.279ZM156.463 36.9912C156.463 37.2015 156.489 37.3592 156.569 37.5168C156.648 37.6745 156.753 37.8059 156.886 37.911C157.123 38.095 157.414 38.1738 157.757 38.1738C158.18 38.1738 158.497 38.0687 158.735 37.8322C158.972 37.5957 159.078 37.2803 159.078 36.8598C159.078 36.4394 158.972 36.124 158.735 35.8875C158.497 35.651 158.18 35.5459 157.784 35.5459C157.599 35.5459 157.44 35.5721 157.282 35.6247C157.123 35.6773 156.965 35.7561 156.859 35.8612C156.727 35.9663 156.621 36.0977 156.569 36.2554C156.489 36.4131 156.463 36.5708 156.463 36.7547V36.9912Z" fill="white"/>
<path d="M161.165 38.2528L159.686 35.4146H159.95L161.297 38.0162L162.539 35.4146H162.803L161.191 38.7784C161.086 39.0149 160.954 39.1726 160.848 39.2777C160.716 39.3828 160.557 39.4091 160.346 39.4091C160.187 39.4091 160.029 39.3828 159.897 39.3302L159.95 39.1463C160.108 39.1988 160.214 39.1988 160.346 39.1988C160.504 39.1988 160.637 39.1726 160.716 39.0937C160.795 39.0149 160.901 38.9098 160.98 38.7258L161.165 38.2528Z" fill="white"/>
<path d="M173.053 37.2017H169.883V35.9665H174.479V36.8338C174.479 39.0675 172.683 39.9085 169.883 39.9085C167.056 39.9085 165.286 39.0675 165.286 36.8338V36.387C165.286 34.1532 167.083 33.3123 169.883 33.3123C172.207 33.3123 173.819 33.8904 174.321 35.3358H172.709C172.128 34.7314 171.019 34.5737 169.883 34.5737C168.271 34.5737 166.66 34.889 166.66 36.387V36.8338C166.66 38.3317 168.245 38.6471 169.883 38.6471C171.336 38.6471 172.789 38.3843 173.053 37.2017Z" fill="white"/>
<path d="M180 38.6995C179.525 39.304 178.653 39.9084 177.676 39.9084C176.223 39.9084 175.377 38.9886 175.377 37.517V34.8364H176.725V37.2542C176.725 38.3316 177.068 38.6733 178.098 38.6733C178.759 38.6733 179.499 38.3842 180 38.0951V34.8627H181.348V39.8296H180V38.6995Z" fill="white"/>
<path d="M183.858 32.918V34.0217H182.51V32.918H183.858ZM183.858 34.8364V39.8033H182.51V34.8364H183.858Z" fill="white"/>
<path d="M190.013 38.7258C189.511 39.3303 188.586 39.9084 187.371 39.9084C185.865 39.9084 184.782 38.9361 184.782 37.4381V37.149C184.782 35.6511 185.839 34.6787 187.371 34.6787C188.586 34.6787 189.511 35.2569 190.013 35.8613V32.918H191.36V39.777H190.013V38.7258ZM187.899 38.6733C188.665 38.6733 189.511 38.3842 190.013 38.0951V36.5183C189.511 36.2292 188.665 35.9402 187.899 35.9402C186.869 35.9402 186.05 36.3081 186.05 37.149V37.4381C186.05 38.3053 186.843 38.6733 187.899 38.6733Z" fill="white"/>
<path d="M198.413 37.2017V37.6484H193.473C193.579 38.358 194.266 38.6208 195.402 38.6208H196.907V39.8034H195.428C193.262 39.8034 192.152 39.1201 192.152 37.4645V37.2542C192.152 35.5986 193.42 34.7051 195.349 34.7051C197.251 34.7051 198.413 35.546 198.413 37.2017ZM193.552 36.7023H196.907C196.775 36.0979 196.247 35.8351 195.349 35.8351C194.371 35.8351 193.79 36.1768 193.552 36.7023Z" fill="white"/>
<path d="M199.021 39.8034C198.862 39.8034 198.73 39.7508 198.598 39.6194C198.466 39.488 198.413 39.3566 198.413 39.1989C198.413 39.0412 198.466 38.8836 198.598 38.7784C198.704 38.6733 198.862 38.5945 199.021 38.5945C199.179 38.5945 199.338 38.647 199.444 38.7784C199.549 38.8836 199.629 39.0412 199.629 39.1989C199.629 39.3566 199.576 39.5143 199.444 39.6194C199.312 39.7508 199.179 39.8034 199.021 39.8034ZM199.021 39.6982C199.179 39.6982 199.312 39.6457 199.417 39.5143C199.496 39.4092 199.523 39.304 199.523 39.1989C199.523 39.0938 199.496 38.9887 199.417 38.8836C199.312 38.7522 199.206 38.6996 199.047 38.6996C198.889 38.6996 198.757 38.7522 198.678 38.8836C198.598 38.9887 198.572 39.0938 198.572 39.1989C198.572 39.3303 198.625 39.4617 198.73 39.5406C198.757 39.6457 198.889 39.6982 199.021 39.6982ZM198.783 38.8836H199.047C199.179 38.8836 199.259 38.9361 199.259 39.0412C199.259 39.1201 199.206 39.1989 199.127 39.2252L199.312 39.5143H199.153L198.995 39.2515H198.915V39.5143H198.783V38.8836ZM198.915 39.1726C199.047 39.1726 199.1 39.1464 199.1 39.0675C199.1 39.015 199.047 38.9887 198.942 38.9887H198.889V39.1726H198.915Z" fill="white"/>
<path d="M37.1099 20.1988C37.1099 21.907 36.7665 23.4049 36.0532 24.7189C35.3399 26.0329 34.3361 27.0316 32.9888 27.7674C31.6415 28.5032 30.0565 28.8711 28.2337 28.8711C26.9393 28.8711 25.7505 28.6872 24.641 28.293C23.5579 27.8988 22.6068 27.3469 21.8143 26.6111C21.0218 25.8752 20.3878 24.9555 19.9651 23.878C19.5424 22.8005 19.3047 21.5654 19.3047 20.2251C19.3047 18.4906 19.6481 16.9927 20.3614 15.6787C21.0746 14.3647 22.1049 13.366 23.4522 12.6302C24.7995 11.8944 26.3845 11.5527 28.2073 11.5527C29.9772 11.5527 31.5359 11.8944 32.8567 12.5776C34.1776 13.2609 35.2343 14.2596 35.974 15.5735C36.74 16.8613 37.1099 18.4118 37.1099 20.1988ZM36.0532 20.1988C36.0532 18.622 35.7362 17.2555 35.1286 16.0991C34.521 14.9428 33.5964 14.023 32.434 13.3923C31.2453 12.7616 29.8452 12.42 28.2337 12.42C26.6487 12.42 25.275 12.7353 24.1126 13.3398C22.9503 13.9442 22.0257 14.8377 21.3916 16.0203C20.7312 17.2029 20.3878 18.5957 20.3878 20.1988C20.3878 21.7756 20.7048 23.1421 21.3124 24.2985C21.92 25.4548 22.8182 26.3746 24.007 27.0053C25.1957 27.636 26.5958 27.9776 28.2073 27.9776C29.7923 27.9776 31.166 27.6623 32.3548 27.0578C33.5436 26.4534 34.4418 25.5599 35.0758 24.3773C35.7362 23.221 36.0532 21.8281 36.0532 20.1988Z" fill="white"/>
<path d="M52.9866 22.3011H48.39V19.4366H56.4209V26.611C55.3906 27.3468 54.1754 27.8987 52.7753 28.2929C51.3752 28.6871 49.9222 28.8711 48.39 28.8711C45.2992 28.8711 42.8688 28.1089 41.1253 26.5847C39.3818 25.0605 38.51 22.9581 38.51 20.2513C38.51 18.4905 38.8798 16.9663 39.6459 15.6523C40.3856 14.3383 41.4952 13.3134 42.9217 12.6038C44.3482 11.868 46.0389 11.5264 47.9938 11.5264C50.1336 11.5264 51.9035 11.9731 53.3036 12.8404C54.7038 13.7076 55.6284 14.969 56.1039 16.5984L52.379 17.0451C52.062 16.1779 51.5337 15.5472 50.794 15.1267C50.0543 14.7062 49.1033 14.5223 47.8881 14.5223C46.1182 14.5223 44.7445 15.0216 43.7935 15.9939C42.816 16.9663 42.3405 18.3854 42.3405 20.1987C42.3405 22.0646 42.8424 23.4837 43.8727 24.4298C44.903 25.3758 46.4088 25.8752 48.39 25.8752C50.2657 25.8752 51.7979 25.5861 52.9866 25.0079V22.3011Z" fill="white"/>
<path d="M67.833 28.4768V26.5321C66.5121 28.0826 64.8743 28.8447 62.893 28.8447C61.3872 28.8447 60.2248 28.4505 59.4059 27.6359C58.587 26.8475 58.1643 25.7174 58.1643 24.272V16.3881H61.5985V23.6413C61.5985 24.4823 61.8099 25.0867 62.2061 25.4809C62.6288 25.8751 63.2364 26.0854 64.1082 26.0854C65.112 26.0854 65.9838 25.7437 66.7499 25.0604C67.0669 24.7714 67.3046 24.456 67.4896 24.0881C67.6745 23.7202 67.7537 23.326 67.7537 22.9318V16.3618H71.2144V28.4243H67.833V28.4768Z" fill="white"/>
<path d="M73.3542 14.7851V11.8154H76.9206V14.7851H73.3542ZM73.4071 28.4768V16.3881H76.8677V28.4506H73.4071V28.4768Z" fill="white"/>
<path d="M88.3064 28.4767V26.8474C87.5931 27.5307 86.827 28.03 86.0081 28.3453C85.1891 28.6607 84.2645 28.8184 83.2078 28.8184C81.6228 28.8184 80.3812 28.503 79.5358 27.846C78.6905 27.2153 78.2678 26.2955 78.2678 25.1129C78.2678 23.7989 78.8226 22.8003 79.9321 22.1433C81.0416 21.4863 82.8116 21.1447 85.2156 21.0921L88.2007 21.0133V20.5402C88.2007 19.857 87.963 19.3314 87.461 18.9897C86.9591 18.6218 86.2722 18.4379 85.3476 18.4379C83.6041 18.4379 82.5474 18.9372 82.204 19.9095L79.0603 19.6204C79.2981 18.4116 79.9585 17.4918 81.0152 16.9136C82.0719 16.3355 83.5513 16.0464 85.4533 16.0464C89.4952 16.0464 91.5293 17.6232 91.5293 20.803V28.4767H88.3064ZM88.2007 23.0368L85.2948 23.1157C84.0268 23.1419 83.1286 23.2996 82.5474 23.5887C81.9662 23.8778 81.6756 24.2983 81.6756 24.8764C81.6756 25.3757 81.887 25.7436 82.3097 26.0064C82.7323 26.2692 83.3399 26.4006 84.1589 26.4006C84.8193 26.4006 85.4005 26.3218 85.9552 26.1641C86.51 26.0064 86.9591 25.7699 87.3289 25.4546C87.9101 24.9815 88.2007 24.4034 88.2007 23.6938V23.0368Z" fill="white"/>
<path d="M94.4615 28.4769V17.4131H92.084V16.5984H94.4615V15.2582C94.4615 14.1544 94.805 13.3134 95.5182 12.6827C96.2315 12.0783 97.2089 11.7629 98.477 11.7629C99.2695 11.7629 99.9828 11.8681 100.617 12.0783L100.379 12.8667C99.745 12.6827 99.1374 12.5776 98.5562 12.5776C96.4693 12.5776 95.4126 13.4711 95.4126 15.2319V16.5721H99.9035V17.3868H95.439V28.4506H94.4615V28.4769ZM102.545 14.1544V11.9469H103.576V14.1544H102.545ZM102.572 28.4769V16.5984H103.549V28.4506H102.572V28.4769Z" fill="white"/>
<path d="M116.995 28.4769V20.9871C116.995 19.6994 116.652 18.7533 115.939 18.0963C115.225 17.4393 114.195 17.124 112.848 17.124C112.135 17.124 111.448 17.2291 110.787 17.4393C110.127 17.6496 109.519 17.9649 108.991 18.3329C108.436 18.7533 108.014 19.2001 107.723 19.6994C107.432 20.1987 107.274 20.7243 107.274 21.2499V28.4769H106.296V16.5984H107.274V19.1213C107.855 18.2015 108.648 17.4919 109.651 16.9926C110.655 16.4933 111.765 16.2305 112.98 16.2305C114.565 16.2305 115.807 16.6247 116.678 17.4393C117.55 18.254 117.973 19.384 117.973 20.8557V28.4769H116.995Z" fill="white"/>
<path d="M130.468 28.4768V25.9802C129.913 26.8737 129.147 27.557 128.143 28.03C127.14 28.5031 126.004 28.7396 124.709 28.7396C123.151 28.7396 121.935 28.4242 121.09 27.7935C120.245 27.1628 119.822 26.2693 119.822 25.113C119.822 23.8778 120.35 22.958 121.381 22.3536C122.411 21.7491 124.075 21.4075 126.321 21.3287L130.495 21.2236V20.5403C130.495 19.3577 130.125 18.4642 129.438 17.886C128.725 17.3079 127.642 17.0188 126.162 17.0188C123.468 17.0188 121.909 17.7809 121.433 19.2788L120.562 19.1212C121.116 17.1765 122.992 16.2041 126.189 16.2041C129.702 16.2041 131.472 17.6495 131.472 20.5403V28.4505H130.468V28.4768ZM130.468 22.0119L126.321 22.1171C124.392 22.1696 122.966 22.4324 122.094 22.9055C121.222 23.3785 120.773 24.0881 120.773 25.0604C120.773 25.9539 121.143 26.6635 121.856 27.1628C122.569 27.6621 123.6 27.9249 124.894 27.9249C125.607 27.9249 126.294 27.8198 126.981 27.6358C127.668 27.4256 128.249 27.1628 128.725 26.7949C129.279 26.4007 129.702 25.9539 129.993 25.4546C130.283 24.9816 130.442 24.456 130.442 23.9304V22.0119H130.468Z" fill="white"/>
<path d="M144.786 28.4769V20.9871C144.786 19.6994 144.443 18.7533 143.73 18.0963C143.016 17.4393 141.986 17.124 140.639 17.124C139.926 17.124 139.239 17.2291 138.578 17.4393C137.918 17.6496 137.31 17.9649 136.782 18.3329C136.227 18.7533 135.805 19.2001 135.514 19.6994C135.223 20.1987 135.065 20.7243 135.065 21.2499V28.4769H134.087V16.5984H135.065V19.1213C135.646 18.2015 136.439 17.4919 137.442 16.9926C138.446 16.4933 139.556 16.2305 140.771 16.2305C142.356 16.2305 143.598 16.6247 144.469 17.4393C145.341 18.254 145.764 19.384 145.764 20.8557V28.4769H144.786Z" fill="white"/>
<path d="M160.082 24.5348C159.844 25.8751 159.21 26.9263 158.153 27.6884C157.097 28.4505 155.749 28.8447 154.138 28.8447C152.87 28.8447 151.76 28.6082 150.783 28.1089C149.832 27.6096 149.066 26.9 148.564 25.9539C148.036 25.0079 147.771 23.9041 147.771 22.6164C147.771 21.4075 148.036 20.3038 148.538 19.3314C149.039 18.359 149.806 17.5969 150.757 17.0451C151.734 16.4932 152.87 16.2041 154.164 16.2041C155.617 16.2041 156.859 16.5457 157.836 17.229C158.84 17.9123 159.501 18.8584 159.818 20.0672L158.867 20.2512C158.576 19.2263 158.021 18.4379 157.202 17.886C156.383 17.3341 155.353 17.0451 154.112 17.0451C152.474 17.0451 151.153 17.5444 150.202 18.543C149.224 19.5416 148.749 20.8819 148.749 22.5901C148.749 24.2457 149.224 25.5597 150.202 26.5321C151.153 27.5044 152.474 27.9775 154.138 27.9775C155.459 27.9775 156.542 27.6621 157.44 27.0577C158.312 26.4532 158.867 25.586 159.104 24.5085H160.082V24.5348Z" fill="white"/>
<path d="M162.248 22.8266C162.275 24.456 162.75 25.7437 163.701 26.6635C164.652 27.5833 165.947 28.03 167.637 28.03C168.905 28.03 169.936 27.8198 170.781 27.3468C171.626 26.9 172.181 26.2693 172.472 25.4546H173.396C173.079 26.5584 172.419 27.373 171.415 27.9512C170.411 28.5294 169.143 28.8184 167.611 28.8184C165.603 28.8184 164.045 28.2666 162.961 27.1891C161.852 26.1116 161.297 24.5874 161.297 22.6164C161.297 21.355 161.535 20.2512 162.037 19.2788C162.539 18.3065 163.252 17.5707 164.203 17.0188C165.154 16.4669 166.264 16.2041 167.558 16.2041C169.486 16.2041 170.966 16.7297 172.049 17.7809C173.106 18.8321 173.66 20.3038 173.66 22.1959V22.8003H162.248V22.8266ZM172.683 22.0382C172.657 20.4614 172.207 19.2263 171.309 18.359C170.411 17.4918 169.143 17.0451 167.532 17.0451C165.973 17.0451 164.731 17.4918 163.78 18.3853C162.829 19.2788 162.301 20.514 162.222 22.0382H172.683Z" fill="white"/>
<path d="M175.694 14.1543V11.9468H176.725V14.1543H175.694ZM175.721 28.4768V16.5983H176.698V28.4505H175.721V28.4768Z" fill="white"/>
<path d="M179.446 28.477V16.5985H180.423V19.1477C180.978 18.2804 181.665 17.6234 182.51 17.1241C183.356 16.6511 184.307 16.4146 185.31 16.4146C185.733 16.4146 186.129 16.4408 186.526 16.5197L186.42 17.4132C186.103 17.3343 185.733 17.3081 185.284 17.3081C183.725 17.3081 182.431 17.8599 181.427 18.9637C181.057 19.3842 180.819 19.7521 180.661 20.12C180.502 20.4616 180.423 20.8558 180.423 21.2763V28.5033H179.446V28.477Z" fill="white"/>
<path d="M199.576 22.485C199.576 24.456 198.968 25.9802 197.779 27.1102C196.59 28.2403 194.953 28.8184 192.892 28.8184C190.805 28.8184 189.194 28.2666 188.005 27.1365C186.816 26.0065 186.235 24.4823 186.235 22.5375C186.235 20.5928 186.842 19.0423 188.031 17.9123C189.22 16.7823 190.858 16.2041 192.918 16.2041C195.005 16.2041 196.617 16.756 197.806 17.886C198.994 19.016 199.576 20.5666 199.576 22.485ZM198.572 22.485C198.572 20.7768 198.07 19.4628 197.092 18.4904C196.088 17.5181 194.715 17.0451 192.945 17.0451C191.175 17.0451 189.775 17.5181 188.771 18.4904C187.767 19.4628 187.292 20.8031 187.292 22.5375C187.292 24.2457 187.793 25.5597 188.771 26.5321C189.775 27.5044 191.148 27.9775 192.918 27.9775C194.688 27.9775 196.088 27.5044 197.092 26.5321C198.07 25.586 198.572 24.2457 198.572 22.485Z" fill="white"/>
</svg>
