<svg width="24" height="24" viewBox="0 0 24 24" fill="none" xmlns="http://www.w3.org/2000/svg">
<path fill-rule="evenodd" clip-rule="evenodd" d="M14.0653 14.0653C16.1391 11.9915 16.1391 8.62916 14.0653 6.55535C11.9915 4.48155 8.62916 4.48155 6.55535 6.55535C4.48155 8.62916 4.48155 11.9915 6.55535 14.0653C8.62916 16.1391 11.9915 16.1391 14.0653 14.0653ZM15.0022 16.2771L16.2771 15.0022L19.736 18.4611C20.088 18.8131 20.088 19.3839 19.736 19.736C19.3839 20.088 18.8131 20.088 18.4611 19.736L15.0022 16.2771ZM14.7724 5.84825C17.2367 8.31257 17.2367 12.308 14.7724 14.7724C12.308 17.2367 8.31257 17.2367 5.84825 14.7724C3.38392 12.308 3.38392 8.31257 5.84825 5.84825C8.31257 3.38392 12.308 3.38392 14.7724 5.84825Z" fill="#F2F5F0"/>
</svg>
