<svg width="29" height="28" viewBox="0 0 29 28" fill="none" xmlns="http://www.w3.org/2000/svg">
<path fill-rule="evenodd" clip-rule="evenodd" d="M14.667 0.682927C7.31218 0.682927 1.34992 6.64518 1.34992 14C1.34992 21.3548 7.31218 27.3171 14.667 27.3171C22.0218 27.3171 27.9841 21.3548 27.9841 14C27.9841 6.64518 22.0218 0.682927 14.667 0.682927ZM0.666992 14C0.666992 6.26801 6.93501 0 14.667 0C22.399 0 28.667 6.26801 28.667 14C28.667 21.732 22.399 28 14.667 28C6.93501 28 0.666992 21.732 0.666992 14Z" fill="#F2F5F0"/>
<path d="M22.2239 12.6205C21.8871 12.6205 21.5924 12.7063 21.2976 12.7922C21.1292 10.56 19.2767 8.8 17.0452 8.8C16.3716 8.8 15.6979 8.97171 15.1506 9.2722V17.6H22.2239C23.5712 17.6 24.6659 16.4839 24.6659 15.1102C24.708 13.7366 23.5712 12.6205 22.2239 12.6205Z" fill="#F2F5F0"/>
<path d="M12.5402 17.6H13.1718V10.8176C12.9613 10.6888 12.7507 10.56 12.5402 10.4741V17.6Z" fill="#F2F5F0"/>
<path d="M11.1929 10.2166V17.6H11.8245V10.2595C11.6561 10.2166 11.4456 10.2166 11.2771 10.2166C11.2771 10.2166 11.235 10.2166 11.1929 10.2166Z" fill="#F2F5F0"/>
<path d="M9.88775 17.6H10.5193V10.3024C10.3088 10.3454 10.0983 10.4312 9.88775 10.5171V17.6Z" fill="#F2F5F0"/>
<path d="M8.58256 11.6761V17.6H9.2141V10.9893C8.96149 11.161 8.75097 11.4185 8.58256 11.6761Z" fill="#F2F5F0"/>
<path d="M7.27737 17.6H7.90891V12.7493C7.6984 12.6634 7.48788 12.6205 7.27737 12.6205V17.6Z" fill="#F2F5F0"/>
<path d="M5.97218 17.2995C6.1827 17.4283 6.39321 17.4712 6.60372 17.5571V12.6634C6.39321 12.7063 6.1827 12.7922 5.97218 12.921V17.2995Z" fill="#F2F5F0"/>
<path d="M13.8454 10.3024V17.6H14.477V9.70146C14.2243 9.87317 14.0138 10.0878 13.8454 10.3024Z" fill="#F2F5F0"/>
<path d="M4.66699 15.1102C4.66699 15.7541 4.91961 16.3122 5.29854 16.7844V13.479C4.91961 13.9083 4.66699 14.4663 4.66699 15.1102Z" fill="#F2F5F0"/>
</svg>
