<svg width="204" height="39" viewBox="0 0 204 39" fill="none" xmlns="http://www.w3.org/2000/svg">
    <path d="M18.2374 12L9.86487 3.85714L10.7462 3L20 12L10.7462 21L9.86487 20.1429L18.2374 12Z" fill="#068E87" />
    <path d="M13.3725 12L5 3.85714L5.88132 3L15.1351 12L5.88132 21L5 20.1429L13.3725 12Z" fill="#068E87" />
    <path
        d="M33.472 13.982V18H31.232V8.004H39.212V9.838H33.472V12.148H38.918V13.982H33.472ZM42.128 18V8.004H44.368V18H42.128ZM57.7527 19.47L56.0167 17.734C55.1954 18.0793 54.2574 18.252 53.2027 18.252C52.0454 18.252 51.0327 18.0467 50.1647 17.636C49.3061 17.216 48.6341 16.614 48.1487 15.83C47.6727 15.0367 47.4347 14.094 47.4347 13.002C47.4347 11.9473 47.6634 11.028 48.1207 10.244C48.5874 9.45067 49.2547 8.83933 50.1227 8.41C51.0001 7.97133 52.0407 7.752 53.2447 7.752C54.4021 7.752 55.4101 7.962 56.2687 8.382C57.1367 8.79267 57.8087 9.39467 58.2847 10.188C58.7701 10.972 59.0127 11.91 59.0127 13.002C59.0127 14.5793 58.5087 15.844 57.5007 16.796L59.0127 18.294L57.7527 19.47ZM53.0767 14.766L54.3227 13.604L56.0167 15.312C56.4647 14.724 56.6887 13.954 56.6887 13.002C56.6887 11.9193 56.3854 11.0793 55.7787 10.482C55.1721 9.88467 54.3181 9.586 53.2167 9.586C52.1247 9.586 51.2754 9.88933 50.6687 10.496C50.0621 11.0933 49.7587 11.9287 49.7587 13.002C49.7587 14.094 50.0621 14.9433 50.6687 15.55C51.2754 16.1473 52.1294 16.446 53.2307 16.446C53.7534 16.446 54.2014 16.3853 54.5747 16.264L53.0767 14.766ZM69.6727 8.004H71.9127V13.8C71.9127 15.2933 71.5067 16.4087 70.6947 17.146C69.8921 17.8833 68.6647 18.252 67.0127 18.252C65.3607 18.252 64.1287 17.8833 63.3167 17.146C62.5141 16.4087 62.1127 15.2933 62.1127 13.8V8.004H64.3527V13.926C64.3527 14.7847 64.5674 15.4147 64.9967 15.816C65.4261 16.2173 66.0981 16.418 67.0127 16.418C67.9274 16.418 68.5994 16.2173 69.0287 15.816C69.4581 15.4147 69.6727 14.7847 69.6727 13.926V8.004ZM75.4997 18V8.004H83.8717V9.838H77.7397V11.938H83.5777V13.772H77.7397V16.166H84.1797L83.8997 18H75.4997ZM39.506 36L38.512 33.732H33.472L32.492 36H30.182L34.76 26.004H37.294L41.872 36H39.506ZM35.992 27.95L34.228 31.954H37.756L35.992 27.95ZM45.5175 36V27.866H41.5975V26.004H51.6775V27.866H47.7575V36H45.5175ZM61.7709 26.004H64.0109V31.8C64.0109 33.2933 63.6049 34.4087 62.7929 35.146C61.9902 35.8833 60.7629 36.252 59.1109 36.252C57.4589 36.252 56.2269 35.8833 55.4149 35.146C54.6122 34.4087 54.2109 33.2933 54.2109 31.8V26.004H56.4509V31.926C56.4509 32.7847 56.6655 33.4147 57.0949 33.816C57.5242 34.2173 58.1962 34.418 59.1109 34.418C60.0255 34.418 60.6975 34.2173 61.1269 33.816C61.5562 33.4147 61.7709 32.7847 61.7709 31.926V26.004ZM75.3249 36L74.3309 33.732H69.2909L68.3109 36H66.0009L70.5789 26.004H73.1129L77.6909 36H75.3249ZM71.8109 27.95L70.0469 31.954H73.5749L71.8109 27.95ZM80.3395 36V26.004H82.5795V34.138H88.6835L88.4035 36H80.3395ZM91.4953 36V26.004H93.7353V36H91.4953ZM96.6444 36V34.39L102.944 27.838H96.7704V26.004H105.842V27.614L99.5424 34.166H106.108L105.828 36H96.6444ZM117.173 36L116.179 33.732H111.139L110.159 36H107.849L112.427 26.004H114.961L119.539 36H117.173ZM113.659 27.95L111.895 31.954H115.423L113.659 27.95ZM122.187 36V26.004H126.667C128.581 26.004 130.037 26.4333 131.035 27.292C132.043 28.1413 132.547 29.378 132.547 31.002C132.547 32.598 132.015 33.83 130.951 34.698C129.897 35.566 128.394 36 126.443 36H122.187ZM126.541 34.138C127.764 34.138 128.683 33.872 129.299 33.34C129.925 32.808 130.237 32.024 130.237 30.988C130.237 28.9067 129.071 27.866 126.737 27.866H124.413V34.138H126.541ZM146.865 31.002C146.865 32.0567 146.632 32.9807 146.165 33.774C145.708 34.558 145.04 35.1693 144.163 35.608C143.295 36.0373 142.259 36.252 141.055 36.252C139.898 36.252 138.885 36.0467 138.017 35.636C137.158 35.216 136.486 34.614 136.001 33.83C135.525 33.0367 135.287 32.094 135.287 31.002C135.287 29.9473 135.516 29.028 135.973 28.244C136.44 27.4507 137.107 26.8393 137.975 26.41C138.852 25.9713 139.893 25.752 141.097 25.752C142.254 25.752 143.262 25.962 144.121 26.382C144.989 26.7927 145.661 27.3947 146.137 28.188C146.622 28.972 146.865 29.91 146.865 31.002ZM144.541 31.002C144.541 29.9193 144.238 29.0793 143.631 28.482C143.024 27.8847 142.17 27.586 141.069 27.586C139.977 27.586 139.128 27.8893 138.521 28.496C137.914 29.0933 137.611 29.9287 137.611 31.002C137.611 32.0847 137.914 32.9247 138.521 33.522C139.128 34.1193 139.982 34.418 141.083 34.418C142.175 34.418 143.024 34.1193 143.631 33.522C144.238 32.9153 144.541 32.0753 144.541 31.002Z"
        fill="#F2F5F0" />
</svg>