<svg width="118" height="26" viewBox="0 0 118 26" fill="none" xmlns="http://www.w3.org/2000/svg">
    <path
        d="M32.48 7.13V10H30.88V2.86H36.58V4.17H32.48V5.82H36.37V7.13H32.48ZM39.0143 10V2.86H40.6143V10H39.0143ZM50.5263 11.05L49.2863 9.81C48.6996 10.0567 48.0296 10.18 47.2763 10.18C46.4496 10.18 45.7263 10.0333 45.1063 9.74C44.4929 9.44 44.0129 9.01 43.6663 8.45C43.3263 7.88333 43.1563 7.21 43.1563 6.43C43.1563 5.67667 43.3196 5.02 43.6463 4.46C43.9796 3.89333 44.4563 3.45667 45.0763 3.15C45.7029 2.83667 46.4463 2.68 47.3063 2.68C48.1329 2.68 48.8529 2.83 49.4663 3.13C50.0863 3.42333 50.5663 3.85333 50.9063 4.42C51.2529 4.98 51.4263 5.65 51.4263 6.43C51.4263 7.55667 51.0663 8.46 50.3463 9.14L51.4263 10.21L50.5263 11.05ZM47.1863 7.69L48.0763 6.86L49.2863 8.08C49.6063 7.66 49.7663 7.11 49.7663 6.43C49.7663 5.65667 49.5496 5.05667 49.1163 4.63C48.6829 4.20333 48.0729 3.99 47.2863 3.99C46.5063 3.99 45.8996 4.20667 45.4663 4.64C45.0329 5.06667 44.8163 5.66333 44.8163 6.43C44.8163 7.21 45.0329 7.81667 45.4663 8.25C45.8996 8.67667 46.5096 8.89 47.2963 8.89C47.6696 8.89 47.9896 8.84667 48.2563 8.76L47.1863 7.69ZM59.392 2.86H60.992V7C60.992 8.06667 60.702 8.86333 60.122 9.39C59.5486 9.91667 58.672 10.18 57.492 10.18C56.312 10.18 55.432 9.91667 54.852 9.39C54.2786 8.86333 53.992 8.06667 53.992 7V2.86H55.592V7.09C55.592 7.70333 55.7453 8.15333 56.052 8.44C56.3586 8.72667 56.8386 8.87 57.492 8.87C58.1453 8.87 58.6253 8.72667 58.932 8.44C59.2386 8.15333 59.392 7.70333 59.392 7.09V2.86ZM63.9055 10V2.86H69.8855V4.17H65.5055V5.67H69.6755V6.98H65.5055V8.69H70.1055L69.9055 10H63.9055ZM36.79 23L36.08 21.38H32.48L31.78 23H30.13L33.4 15.86H35.21L38.48 23H36.79ZM34.28 17.25L33.02 20.11H35.54L34.28 17.25ZM41.4354 23V17.19H38.6354V15.86H45.8354V17.19H43.0354V23H41.4354ZM53.3963 15.86H54.9963V20C54.9963 21.0667 54.7063 21.8633 54.1263 22.39C53.553 22.9167 52.6763 23.18 51.4963 23.18C50.3163 23.18 49.4363 22.9167 48.8563 22.39C48.283 21.8633 47.9963 21.0667 47.9963 20V15.86H49.5963V20.09C49.5963 20.7033 49.7497 21.1533 50.0563 21.44C50.363 21.7267 50.843 21.87 51.4963 21.87C52.1497 21.87 52.6297 21.7267 52.9363 21.44C53.243 21.1533 53.3963 20.7033 53.3963 20.09V15.86ZM63.4292 23L62.7192 21.38H59.1192L58.4192 23H56.7692L60.0392 15.86H61.8492L65.1192 23H63.4292ZM60.9192 17.25L59.6592 20.11H62.1792L60.9192 17.25ZM67.3625 23V15.86H68.9625V21.67H73.3225L73.1225 23H67.3625ZM75.6823 23V15.86H77.2823V23H75.6823ZM79.7117 23V21.85L84.2117 17.17H79.8017V15.86H86.2817V17.01L81.7817 21.69H86.4717L86.2717 23H79.7117ZM94.7262 23L94.0162 21.38H90.4162L89.7162 23H88.0662L91.3362 15.86H93.1462L96.4162 23H94.7262ZM92.2162 17.25L90.9562 20.11H93.4762L92.2162 17.25ZM98.6594 23V15.86H101.859C103.226 15.86 104.266 16.1667 104.979 16.78C105.699 17.3867 106.059 18.27 106.059 19.43C106.059 20.57 105.679 21.45 104.919 22.07C104.166 22.69 103.093 23 101.699 23H98.6594ZM101.769 21.67C102.643 21.67 103.299 21.48 103.739 21.1C104.186 20.72 104.409 20.16 104.409 19.42C104.409 17.9333 103.576 17.19 101.909 17.19H100.249V21.67H101.769ZM116.638 19.43C116.638 20.1833 116.471 20.8433 116.138 21.41C115.811 21.97 115.334 22.4067 114.708 22.72C114.088 23.0267 113.348 23.18 112.488 23.18C111.661 23.18 110.938 23.0333 110.318 22.74C109.704 22.44 109.224 22.01 108.878 21.45C108.538 20.8833 108.368 20.21 108.368 19.43C108.368 18.6767 108.531 18.02 108.858 17.46C109.191 16.8933 109.668 16.4567 110.288 16.15C110.914 15.8367 111.658 15.68 112.518 15.68C113.344 15.68 114.064 15.83 114.678 16.13C115.298 16.4233 115.778 16.8533 116.118 17.42C116.464 17.98 116.638 18.65 116.638 19.43ZM114.978 19.43C114.978 18.6567 114.761 18.0567 114.328 17.63C113.894 17.2033 113.284 16.99 112.498 16.99C111.718 16.99 111.111 17.2067 110.678 17.64C110.244 18.0667 110.028 18.6633 110.028 19.43C110.028 20.2033 110.244 20.8033 110.678 21.23C111.111 21.6567 111.721 21.87 112.508 21.87C113.288 21.87 113.894 21.6567 114.328 21.23C114.761 20.7967 114.978 20.1967 114.978 19.43Z"
        fill="#F2F5F0" />
    <path d="M5.61602 13L12.5001 6.21429L11.7754 5.5L4.16675 13L11.7754 20.5L12.5001 19.7857L5.61602 13Z"
        fill="#068E87" />
    <path d="M9.61602 13L16.5001 6.21429L15.7754 5.5L8.16675 13L15.7754 20.5L16.5001 19.7857L9.61602 13Z"
        fill="#068E87" />
</svg>