<svg width="24" height="24" viewBox="0 0 24 24" fill="none" xmlns="http://www.w3.org/2000/svg">
    <path fill-rule="evenodd" clip-rule="evenodd"
        d="M10.4462 17.6062C10.4462 18.3834 11.116 19.0588 11.9956 19.0588C12.8752 19.0588 13.545 18.3834 13.545 17.6062H14.4783C14.4783 18.9517 13.3412 20 11.9956 20C10.65 20 9.51286 18.9517 9.51286 17.6062H10.4462Z"
        fill="#F2F5F0" />
    <path fill-rule="evenodd" clip-rule="evenodd"
        d="M6.47312 10.3379C6.47312 7.38752 8.97211 5.04015 12 5.04015C15.0279 5.04015 17.5269 7.38753 17.5269 10.3379C17.5269 10.4876 17.5267 10.6368 17.5265 10.7857C17.5262 11.0821 17.5258 11.3774 17.5269 11.6735L17.5269 11.6752C17.5269 13.1082 18.0169 14.3206 18.7073 14.9974L18.7105 15.0006C18.8779 15.1678 19 15.4066 19 15.6787V16.3877C19 16.9462 18.5322 17.3466 18.0215 17.3466H5.97847C5.45795 17.3466 5 16.9368 5 16.3877V15.6787C5 15.4066 5.12212 15.1679 5.28949 15.0006L5.29173 14.9983C5.97926 14.3205 6.47312 13.107 6.47312 11.6752L6.47312 11.6735C6.47418 11.3774 6.47383 11.0821 6.47347 10.7856C6.47329 10.6368 6.47312 10.4876 6.47312 10.3379ZM12 5.98132C9.43807 5.98132 7.40645 7.95588 7.40645 10.3379C7.40645 10.4851 7.40663 10.6331 7.4068 10.7813C7.40716 11.079 7.40752 11.3781 7.40645 11.6761C7.40624 13.3007 6.8498 14.7785 5.94423 15.6713L5.94648 15.6691C5.93918 15.6764 5.93519 15.6826 5.93333 15.6862V16.3863C5.93333 16.3863 5.93509 16.389 5.93747 16.3913C5.94408 16.3976 5.95722 16.4054 5.97847 16.4054H18.0215C18.0418 16.4054 18.0557 16.3977 18.0629 16.3909C18.065 16.389 18.0667 16.3865 18.0667 16.3865V15.6862C18.0649 15.6828 18.0611 15.6769 18.0544 15.67C17.1442 14.776 16.5938 13.2982 16.5936 11.6762C16.5925 11.3782 16.5928 11.0791 16.5932 10.7814C16.5934 10.6331 16.5936 10.4851 16.5936 10.3379C16.5936 7.95588 14.5619 5.98132 12 5.98132Z"
        fill="#F2F5F0" />
    <path fill-rule="evenodd" clip-rule="evenodd"
        d="M12 5.41176C11.5654 5.41176 11.2606 5.26847 11.2606 5.62112H10.3272C10.3272 4.70012 11.0994 4 12 4C12.9006 4 13.6727 4.70012 13.6727 5.62112H12.7394C12.7394 5.26847 12.4346 5.41176 12 5.41176Z"
        fill="#F2F5F0" />
</svg>