<svg width="24" height="24" viewBox="0 0 24 24" fill="none" xmlns="http://www.w3.org/2000/svg">
    <g opacity="0.3">
        <path fill-rule="evenodd" clip-rule="evenodd"
            d="M10.9892 4.50005C10.9884 4.50258 10.9882 4.50593 10.9882 4.50593V6.27668C10.9882 6.50594 10.8323 6.70583 10.6099 6.76164C10.1693 6.87222 9.7161 7.09723 9.20069 7.35595C9.00776 7.45279 8.77447 7.41489 8.62213 7.26195L7.37008 6.00495L5.99705 7.3834L7.25189 8.64319C7.41053 8.80246 7.44338 9.04802 7.33218 9.24338C7.08844 9.67161 6.86567 10.126 6.7559 10.6219C6.70522 10.8509 6.50222 11.0138 6.26772 11.0138H4.50394L4.50103 11.0139C4.50024 11.0164 4.5 11.0198 4.5 11.0198V12.9802C4.5 12.9823 4.50016 12.9855 4.50016 12.9855L4.50394 12.9862H6.33071C6.54612 12.9862 6.73731 13.1241 6.80522 13.3286L6.8056 13.3297L6.80739 13.335L6.81521 13.358C6.82227 13.3786 6.83297 13.4094 6.84706 13.449C6.87527 13.5283 6.91697 13.6425 6.97018 13.7799C7.07704 14.0557 7.22835 14.4199 7.4082 14.7811C7.50385 14.9731 7.4663 15.2048 7.31488 15.3568L6.06005 16.6166L6.06324 16.6198L7.37036 17.9948L8.62213 16.7381C8.78173 16.5778 9.02902 16.5447 9.22519 16.6572C9.6517 16.9019 10.1038 17.1253 10.5971 17.2353C10.8256 17.2863 10.9882 17.4891 10.9882 17.7233V19.4941C10.9882 19.4961 10.9884 19.4993 10.9884 19.4993L10.991 19.4999L10.9921 19.5H12.9449L12.9478 19.4999C12.9486 19.4974 12.9488 19.4941 12.9488 19.4941V17.7233C12.9488 17.4941 13.1047 17.2942 13.3271 17.2384C13.7748 17.126 14.2987 16.8942 14.7118 16.6572C14.908 16.5447 15.1553 16.5778 15.3149 16.7381L16.5669 17.9951L17.9397 16.6796L16.6851 15.42C16.5426 15.2769 16.5001 15.0621 16.5776 14.8755L17.2075 13.3577C17.285 13.1711 17.4672 13.0494 17.6693 13.0494H19.4961L19.499 13.0494C19.4998 13.0468 19.5 13.0435 19.5 13.0435V11.083C19.5 11.0809 19.4998 11.0777 19.4998 11.0777L19.4961 11.0771H17.7323C17.5027 11.0771 17.3026 10.9207 17.2471 10.6979C17.135 10.2478 16.904 9.72157 16.6678 9.30662C16.5566 9.11126 16.5895 8.8657 16.7481 8.70643L18.0029 7.44664L16.6299 6.06819L15.3779 7.32519C15.1961 7.50771 14.9053 7.52222 14.7063 7.3587C14.4305 7.13221 14.107 6.99933 13.8401 6.92377C13.7088 6.88657 13.5966 6.86481 13.5192 6.85253C13.4806 6.84642 13.4511 6.84273 13.4326 6.84067L13.4137 6.83872C13.4137 6.83872 13.4131 6.83864 13.4488 6.33992V6.83992C13.4367 6.83992 13.4256 6.83957 13.4137 6.83872C13.1544 6.82022 12.9488 6.60392 12.9488 6.33992V4.50593C12.9488 4.50386 12.9487 4.50066 12.9487 4.50066L12.9503 4.50122C12.9522 4.50194 12.9531 4.50258 12.9531 4.50258C12.9531 4.50258 12.9496 4.49881 12.9483 4.49588C12.9483 4.49588 12.9485 4.49776 12.9487 4.50066L12.9449 4.5H10.9921L10.9892 4.50005ZM10.9892 4.50005L10.9897 4.49851C10.9907 4.4961 10.9915 4.495 10.9915 4.495C10.9915 4.495 10.9877 4.49855 10.9843 4.50009L10.9827 4.5007C10.9827 4.5007 10.9854 4.50019 10.9892 4.50005ZM13.9488 5.91903V4.50593C13.9488 3.87529 13.4331 3.5 12.9449 3.5H10.9921C10.3592 3.5 9.98819 4.0206 9.98819 4.50593V5.90615C9.67371 6.01624 9.36674 6.15797 9.07608 6.30068L8.07079 5.29141C7.68639 4.9055 7.05377 4.9055 6.66937 5.29141L5.28354 6.68272C4.90024 7.06754 4.90024 7.69926 5.28354 8.08408L6.27986 9.08434C6.13411 9.36495 5.99343 9.67568 5.88557 10.0138H4.50394C3.871 10.0138 3.5 10.5344 3.5 11.0198V12.9802C3.5 13.6109 4.01574 13.9862 4.50394 13.9862H5.97869C5.99658 14.034 6.01629 14.0858 6.03769 14.1411C6.12001 14.3536 6.2286 14.6193 6.35754 14.9009L5.34654 15.9159C4.96484 16.2991 4.96323 16.9272 5.34173 17.3124L6.66126 18.7003L6.66937 18.7086C7.05377 19.0945 7.68639 19.0945 8.07078 18.7086L9.06515 17.7103C9.34386 17.856 9.65242 17.9967 9.98819 18.1047V19.4941C9.98819 20.1247 10.5039 20.5 10.9921 20.5H12.9449C13.5778 20.5 13.9488 19.9794 13.9488 19.4941V18.0964C14.264 17.9902 14.5814 17.8529 14.8692 17.7076L15.8662 18.7086C16.249 19.0929 16.8779 19.0945 17.2628 18.7134L18.6452 17.3887L18.6535 17.3805C19.0368 16.9957 19.0368 16.364 18.6535 15.9792L17.6291 14.9507L18.0031 14.0494H19.4961C20.129 14.0494 20.5 13.5288 20.5 13.0435V11.083C20.5 10.4524 19.9843 10.0771 19.4961 10.0771H18.1062C18.0001 9.75969 17.8628 9.43994 17.7175 9.15019L18.7165 8.14732C19.0998 7.7625 19.0998 7.13078 18.7165 6.74596L17.3306 5.35465C16.9462 4.96874 16.3136 4.96874 15.9292 5.35465L14.9647 6.32295C14.6609 6.14275 14.3577 6.03102 14.1126 5.9616C14.0552 5.94536 14.0004 5.93126 13.9488 5.91903Z"
            fill="#F2F5F0" />
        <path fill-rule="evenodd" clip-rule="evenodd"
            d="M10 12C10 13.0618 10.885 14 12 14C13.0618 14 14 13.115 14 12C14 10.9382 13.1151 10 12 10C10.885 10 10 10.9382 10 12ZM12 15C10.3125 15 9 13.5938 9 12C9 10.4063 10.3125 9 12 9C13.6875 9 15 10.4063 15 12C15 13.6875 13.5938 15 12 15Z"
            fill="#F2F5F0" />
    </g>
</svg>