<svg width="24" height="24" viewBox="0 0 24 24" fill="none" xmlns="http://www.w3.org/2000/svg">
    <g opacity="0.3">
        <path fill-rule="evenodd" clip-rule="evenodd"
            d="M11.1488 3.71191H16.5294C17.5071 3.71191 18.2899 4.50783 18.2899 5.48344V18.5165C18.2899 19.4922 17.5071 20.2881 16.5294 20.2881H7.47059C6.49287 20.2881 5.71008 19.4922 5.71008 18.5165V9.19813L11.1488 3.71191ZM11.5655 4.71191L6.71008 9.6098V18.5165C6.71008 18.9481 7.05334 19.2881 7.47059 19.2881H16.5294C16.9467 19.2881 17.2899 18.9481 17.2899 18.5165V5.48344C17.2899 5.05189 16.9467 4.71191 16.5294 4.71191H11.5655Z"
            fill="#F2F5F0" />
        <path fill-rule="evenodd" clip-rule="evenodd"
            d="M10.8487 8.12821V4.21191H11.8487V8.12821C11.8487 9.0998 11.063 9.91847 10.0659 9.88278H6.21008V8.88278H10.0862L10.0968 8.88322C10.4976 8.90017 10.8487 8.56853 10.8487 8.12821Z"
            fill="#F2F5F0" />
        <path d="M8.5 11.5H15.5" stroke="#F2F5F0" />
        <path d="M8.5 14H15.5" stroke="#F2F5F0" />
        <path d="M8.5 16.5996H15.5" stroke="#F2F5F0" />
    </g>
</svg>