<svg width="24" height="24" viewBox="0 0 24 24" fill="none" xmlns="http://www.w3.org/2000/svg">
    <g opacity="0.4">
        <path fill-rule="evenodd" clip-rule="evenodd"
            d="M12.0017 5.65661L6.03981 11.5952H6.81171V18.5H8.65295V16.574C8.65295 14.8403 9.95057 13.282 11.7288 13.1504L11.7304 13.1503C12.7412 13.0788 13.6658 13.4599 14.3201 14.1138C14.9216 14.7112 15.2935 15.5458 15.2935 16.4597V18.4962H17.1919V11.5952H17.9603L12.0017 5.65661ZM12.4388 4.68039C12.198 4.43999 11.8061 4.43987 11.5652 4.68003L4.68296 11.5353C4.29716 11.9211 4.55992 12.5952 5.1196 12.5952H5.81171V18.5239C5.81171 19.0629 6.24887 19.5 6.78779 19.5H9.03107C9.38583 19.5 9.65295 19.2088 9.65295 18.8781V16.574C9.65295 15.3145 10.5944 14.2375 11.8017 14.1478C12.5118 14.0977 13.1558 14.3638 13.6135 14.8215L13.6148 14.8228C14.0336 15.2384 14.2935 15.8202 14.2935 16.4597V18.8743C14.2935 19.2291 14.5847 19.4962 14.9154 19.4962H17.2158C17.7586 19.4962 18.1919 19.0437 18.1919 18.5125V12.5952H18.884C19.4568 12.5952 19.6912 11.9097 19.3175 11.536L12.4388 4.68039Z"
            fill="#F2F5F0" />
    </g>
</svg>