<svg xmlns="http://www.w3.org/2000/svg" width="24" height="24" viewBox="0 0 24 24">
  <g id="invest" transform="translate(-679 -498)">
    <path opacity="0.3" id="Caminho_1" data-name="Caminho 1"
      d="M7.113,3.5A1.586,1.586,0,0,0,5.5,5.055v13.89A1.586,1.586,0,0,0,7.113,20.5h6.774A1.586,1.586,0,0,0,15.5,18.945V13.985h-1v4.959a.587.587,0,0,1-.613.555H7.113a.587.587,0,0,1-.613-.555V5.055A.587.587,0,0,1,7.113,4.5h6.774a.587.587,0,0,1,.613.555v2.97h1V5.055A1.586,1.586,0,0,0,13.887,3.5Z"
      transform="translate(679.951 498.5)" fill="#f2f5f0" />
    <path opacity="0.3" id="Caminho_2" data-name="Caminho 2" d="M9,5.5h3v1H9Z" transform="translate(679.951 498.5)"
      fill="#f2f5f0" />
    <path opacity="0.3" id="Caminho_3" data-name="Caminho 3" d="M8,16.5h3v-1H8Z" transform="translate(679.951 498.5)"
      fill="#f2f5f0" />
    <path opacity="0.3" id="Caminho_4" data-name="Caminho 4" d="M11,18.5H8v-1h3Z" transform="translate(679.951 498.5)"
      fill="#f2f5f0" />
    <path opacity="0.3" id="Caminho_5" data-name="Caminho 5"
      d="M13,11.936q0,.032,0,.064a1,1,0,1,0,1.932-.364l2.818-3.522.1.915.745-.085-.226-1.987a.375.375,0,0,0-.415-.33l-1.987.226.085.745.909-.1-2.813,3.516A1.011,1.011,0,0,0,14,11a1,1,0,0,0-.443.1L12,10.064q0-.032,0-.064a1,1,0,1,0-1.966.259L7.146,13.146l.707.707,2.887-2.887a1,1,0,0,0,.7-.07Z"
      transform="translate(679.951 498.5)" fill="#f2f5f0" />
  </g>
</svg>