<svg width="24" height="24" viewBox="0 0 24 24" fill="none" xmlns="http://www.w3.org/2000/svg">
    <g opacity="0.3">
        <path fill-rule="evenodd" clip-rule="evenodd" d="M7 6V10.5H15V6H7ZM14 7H8V9.5H14V7Z" fill="white" />
        <path d="M7 16.5H11.5V15.5H7V16.5Z" fill="white" />
        <path d="M14 14.5H7V13.5H14V14.5Z" fill="white" />
        <path d="M7 12.5H14V11.5H7V12.5Z" fill="white" />
        <path fill-rule="evenodd" clip-rule="evenodd"
            d="M6.5 4C5.67157 4 5 4.67157 5 5.5V17.5C5 18.3284 5.67157 19 6.5 19H18.5C19.3284 19 20 18.3284 20 17.5V11.5C20 10.6716 19.3284 10 18.5 10H17.5V11H18.5C18.7761 11 19 11.2239 19 11.5V17.5C19 17.7761 18.7761 18 18.5 18H17.5C17.2239 18 17 17.7761 17 17.5V5.5C17 4.67157 16.3284 4 15.5 4H6.5ZM16.0854 18C16.0301 17.8436 16 17.6753 16 17.5V5.5C16 5.22386 15.7761 5 15.5 5H6.5C6.22386 5 6 5.22386 6 5.5V17.5C6 17.7761 6.22386 18 6.5 18H16.0854Z"
            fill="white" />
    </g>
</svg>