<svg width="24" height="24" viewBox="0 0 24 24" fill="none" xmlns="http://www.w3.org/2000/svg">
    <g opacity="0.3">
        <path
            d="M11.1654 13.5676C11.1654 13.3096 11.1975 13.0778 11.2655 12.8723C11.3336 12.6668 11.4216 12.4744 11.5377 12.2951C11.6498 12.1159 11.7779 11.9497 11.9179 11.7923C12.058 11.6349 12.2021 11.4819 12.3502 11.3244C12.4583 11.2064 12.5624 11.0927 12.6584 10.9878C12.7545 10.8828 12.8426 10.7691 12.9146 10.6423C12.9907 10.5199 13.0507 10.3843 13.0907 10.2357C13.1348 10.087 13.1548 9.91648 13.1548 9.72409C13.1548 9.37429 13.0587 9.10319 12.8706 8.90643C12.6825 8.70966 12.4263 8.6091 12.1101 8.6091C11.6818 8.6091 11.3536 8.71404 11.1214 8.92392C10.8893 9.1338 10.7251 9.50984 10.6251 10.0389L9 9.82029C9.06805 9.42676 9.17211 9.05509 9.31621 8.71404C9.46031 8.37298 9.65644 8.07127 9.9006 7.81767C10.1488 7.56406 10.457 7.36729 10.8212 7.21863C11.1855 7.06996 11.6217 7 12.1261 7C13.0267 7 13.7312 7.22737 14.2395 7.67337C14.7478 8.12374 15 8.73153 15 9.50547C15 9.79843 14.972 10.0564 14.9159 10.275C14.8599 10.4937 14.7879 10.6904 14.6958 10.861C14.6037 11.0315 14.4997 11.1845 14.3796 11.3201C14.2635 11.46 14.1394 11.5955 14.0153 11.7355C13.8632 11.9016 13.7191 12.059 13.5871 12.2033C13.451 12.352 13.3349 12.5007 13.2348 12.6493C13.1348 12.8024 13.0547 12.9554 12.9947 13.1172C12.9346 13.279 12.9066 13.4539 12.9066 13.6463V13.8824H11.1654V13.5676Z"
            fill="#F2F5F0" />
        <path d="M12.8946 14.8094H11.1534V17H12.8946V14.8094Z" fill="#F2F5F0" />
        <path fill-rule="evenodd" clip-rule="evenodd"
            d="M12 19C15.866 19 19 15.866 19 12C19 8.13401 15.866 5 12 5C8.13401 5 5 8.13401 5 12C5 15.866 8.13401 19 12 19ZM20 12C20 16.4183 16.4183 20 12 20C7.58172 20 4 16.4183 4 12C4 7.58172 7.58172 4 12 4C16.4183 4 20 7.58172 20 12Z"
            fill="#F2F5F0" />
    </g>
</svg>