<svg width="24" height="24" viewBox="0 0 24 24" fill="none" xmlns="http://www.w3.org/2000/svg">
<path fill-rule="evenodd" clip-rule="evenodd" d="M12 4.5C10.067 4.5 8.5 6.067 8.5 8C8.5 9.933 10.067 11.5 12 11.5C13.933 11.5 15.5 9.933 15.5 8C15.5 6.067 13.933 4.5 12 4.5ZM7.5 8C7.5 5.51472 9.51472 3.5 12 3.5C14.4853 3.5 16.5 5.51472 16.5 8C16.5 10.4853 14.4853 12.5 12 12.5C9.51472 12.5 7.5 10.4853 7.5 8ZM5.5 15.9995C5.5 14.0668 7.06677 12.5 8.99948 12.5V13.5C7.61905 13.5 6.5 14.6191 6.5 15.9995V19.5H17.5V15.9995C17.5 14.6191 16.3809 13.5 15.0005 13.5V12.5C16.9332 12.5 18.5 14.0668 18.5 15.9995V20.5H5.5V15.9995Z" fill="#F2F5F0"/>
</svg>
