<svg width="24" height="24" viewBox="0 0 24 24" fill="none" xmlns="http://www.w3.org/2000/svg">
    <g opacity="0.3">
        <path fill-rule="evenodd" clip-rule="evenodd"
            d="M8 6.5C6.81778 6.5 5.83333 7.49274 5.83333 8.75C5.83333 10.0073 6.81778 11 8 11C9.18223 11 10.1667 10.0073 10.1667 8.75C10.1667 7.49274 9.18223 6.5 8 6.5ZM4.83333 8.75C4.83333 6.96969 6.23671 5.5 8 5.5C9.76329 5.5 11.1667 6.96969 11.1667 8.75C11.1667 10.5303 9.76329 12 8 12C6.23671 12 4.83333 10.5303 4.83333 8.75ZM20 10L14 10V9L20 9V10ZM3.5 14.2496C3.5 12.8492 4.60474 11.6875 5.99965 11.6875V12.6875C5.18581 12.6875 4.5 13.3723 4.5 14.2496V17.5H11.5V14.2496C11.5 13.3723 10.8142 12.6875 10.0003 12.6875V11.6875C11.3953 11.6875 12.5 12.8492 12.5 14.2496V18.5H3.5V14.2496ZM20 13L14 13V12L20 12V13ZM20 16L14 16V15L20 15V16Z"
            fill="#F2F5F0" />
    </g>
</svg>