<svg xmlns="http://www.w3.org/2000/svg" width="14.089" height="14" viewBox="0 0 14.089 14">
	<path id="Trazado_63" data-name="Trazado 63"
		d="M0,1.387A.468.468,0,0,1,.47.92H11.8a2.281,2.281,0,0,1,2.289,2.275V14.108a.816.816,0,0,1-.818.812.471.471,0,0,1-.3-.107L7.223,10.088a.282.282,0,0,0-.353,0L1.117,14.813a.471.471,0,0,1-.3.107A.816.816,0,0,1,0,14.108Zm.939.467V13.748l5.333-4.38h0a1.225,1.225,0,0,1,1.546,0h0l5.329,4.379V3.195A1.345,1.345,0,0,0,11.8,1.854Z"
		transform="translate(0 -0.92)" fill="#068e87" fill-rule="evenodd" />
</svg>
