<svg width="16" height="16" viewBox="0 0 16 16" fill="none" xmlns="http://www.w3.org/2000/svg">
<path d="M7.16544 9.56756C7.16544 9.30958 7.19747 9.07783 7.26551 8.87232C7.33356 8.66681 7.42161 8.47442 7.53769 8.29515C7.64977 8.11587 7.77785 7.94972 7.91794 7.7923C8.05804 7.63489 8.20213 7.48185 8.35023 7.32444C8.45831 7.20638 8.56238 7.0927 8.65844 6.98776C8.7545 6.88282 8.84256 6.76913 8.91461 6.64233C8.99066 6.5199 9.0507 6.38435 9.09073 6.23568C9.13476 6.08701 9.15477 5.91648 9.15477 5.72409C9.15477 5.37429 9.05871 5.10319 8.87058 4.90643C8.68246 4.70966 8.42628 4.6091 8.11007 4.6091C7.68179 4.6091 7.35357 4.71404 7.12141 4.92392C6.88926 5.1338 6.72515 5.50984 6.62508 6.03892L5 5.82029C5.06805 5.42676 5.17211 5.05509 5.31621 4.71404C5.46031 4.37298 5.65644 4.07127 5.9006 3.81767C6.14877 3.56406 6.45697 3.36729 6.82121 3.21863C7.18546 3.06996 7.62175 3 8.12608 3C9.02668 3 9.73115 3.22737 10.2395 3.67337C10.7478 4.12374 11 4.73153 11 5.50547C11 5.79843 10.972 6.05641 10.9159 6.27503C10.8599 6.49366 10.7879 6.69042 10.6958 6.86095C10.6037 7.03148 10.4997 7.18452 10.3796 7.32007C10.2635 7.45999 10.1394 7.59554 10.0153 7.73546C9.86324 7.90162 9.71914 8.05903 9.58706 8.20332C9.45097 8.35199 9.33489 8.50066 9.23482 8.64932C9.13476 8.80236 9.0547 8.9554 8.99466 9.11718C8.93462 9.27897 8.9066 9.45387 8.9066 9.64626V9.88238H7.16544V9.56756Z" fill="#F2F5F0"/>
<path d="M8.8946 10.8094H7.15344V13H8.8946V10.8094Z" fill="#F2F5F0"/>
<path fill-rule="evenodd" clip-rule="evenodd" d="M8 15C11.866 15 15 11.866 15 8C15 4.13401 11.866 1 8 1C4.13401 1 1 4.13401 1 8C1 11.866 4.13401 15 8 15ZM16 8C16 12.4183 12.4183 16 8 16C3.58172 16 0 12.4183 0 8C0 3.58172 3.58172 0 8 0C12.4183 0 16 3.58172 16 8Z" fill="#F2F5F0"/>
</svg>
