<?xml version="1.0" encoding="utf-8"?>
<!-- Generator: Adobe Illustrator 25.2.3, SVG Export Plug-In . SVG Version: 6.00 Build 0)  -->
<svg version="1.1" id="Camada_1" xmlns="http://www.w3.org/2000/svg" xmlns:xlink="http://www.w3.org/1999/xlink" x="0px" y="0px"
	 viewBox="0 0 132 40" style="enable-background:new 0 0 132 40;" xml:space="preserve">
<style type="text/css">
	.st0{clip-path:url(#SVGID_2_);}
	.st1{fill:#FFFFFF;}
	.st2{fill:#B8B8B8;}
	.st3{fill:#103030;}
	.st4{fill:url(#SVGID_3_);}
</style>
<g>
	<defs>
		<rect id="SVGID_1_" width="132" height="40"/>
	</defs>
	<clipPath id="SVGID_2_">
		<use xlink:href="#SVGID_1_"  style="overflow:visible;"/>
	</clipPath>
	<g class="st0">
		<path class="st1" d="M131.2,35.3c0,1-0.4,2-1.1,2.7c-0.7,0.7-1.7,1.1-2.6,1.1H4.6c-1,0-1.9-0.4-2.7-1.1c-0.7-0.7-1.1-1.7-1.1-2.7
			V4.7c0-1,0.4-2,1.1-2.7c0.7-0.7,1.7-1.1,2.7-1.1h122.8c1,0,1.9,0.4,2.7,1.1c0.7,0.7,1.1,1.7,1.1,2.7L131.2,35.3L131.2,35.3z"/>
		<path class="st2" d="M127.4,40H4.6c-1.2,0-2.4-0.5-3.3-1.4C0.5,37.7,0,36.5,0,35.3V4.7c0-1.3,0.5-2.5,1.4-3.3C2.2,0.5,3.4,0,4.6,0
			h122.8c1.2,0,2.4,0.5,3.3,1.4c0.9,0.9,1.4,2.1,1.4,3.3v30.5C132,37.9,130,40,127.4,40L127.4,40z"/>
		<path class="st3" d="M131.2,35.3c0,1-0.4,2-1.1,2.7c-0.7,0.7-1.7,1.1-2.6,1.1H4.6c-1,0-1.9-0.4-2.7-1.1c-0.7-0.7-1.1-1.7-1.1-2.7
			V4.7c0-1,0.4-2,1.1-2.7c0.7-0.7,1.7-1.1,2.7-1.1h122.8c1,0,1.9,0.4,2.7,1.1c0.7,0.7,1.1,1.7,1.1,2.7L131.2,35.3L131.2,35.3z"/>
		<path class="st1" d="M29.5,19.8c0-3.2,2.6-4.8,2.7-4.9c-1.5-2.2-3.8-2.5-4.6-2.5c-1.9-0.2-3.8,1.2-4.8,1.2c-1,0-2.5-1.2-4.1-1.1
			c-2.1,0-4.1,1.3-5.1,3.2c-2.2,3.9-0.6,9.7,1.6,12.9c1.1,1.6,2.3,3.3,3.9,3.2c1.6-0.1,2.2-1,4.1-1c1.9,0,2.5,1,4.1,1
			c1.7,0,2.8-1.6,3.8-3.1c1.2-1.8,1.7-3.5,1.7-3.6C32.8,24.9,29.5,23.7,29.5,19.8L29.5,19.8z M26.4,10.3c0.9-1.1,1.4-2.6,1.3-4.1
			c-1.2,0.1-2.8,0.9-3.7,1.9c-0.8,0.9-1.5,2.5-1.3,3.9C24,12.2,25.5,11.4,26.4,10.3L26.4,10.3z"/>
		
			<linearGradient id="SVGID_3_" gradientUnits="userSpaceOnUse" x1="96.8385" y1="1.7183" x2="96.8385" y2="145.977" gradientTransform="matrix(1 0 0 -1 0 42)">
			<stop  offset="0" style="stop-color:#1A1A1A;stop-opacity:0.1"/>
			<stop  offset="0.12" style="stop-color:#212121;stop-opacity:0.15"/>
			<stop  offset="0.31" style="stop-color:#353535;stop-opacity:0.23"/>
			<stop  offset="0.53" style="stop-color:#575757;stop-opacity:0.32"/>
			<stop  offset="0.78" style="stop-color:#858585;stop-opacity:0.42"/>
			<stop  offset="1" style="stop-color:#B3B3B3;stop-opacity:0.51"/>
		</linearGradient>
		<path class="st4" d="M127.4,0H61.6l25.8,40h40c1.2,0,2.4-0.5,3.3-1.4c0.9-0.9,1.4-2.1,1.4-3.3V4.7c0-1.3-0.5-2.5-1.4-3.3
			C129.8,0.5,128.6,0,127.4,0z"/>
		<path class="st1" d="M52.5,31.5h-2.2l-1.2-3.9h-4.2l-1.2,3.9h-2.2l4.2-13.3h2.6L52.5,31.5z M48.7,26l-1.1-3.5
			c-0.1-0.4-0.3-1.2-0.7-2.5h0c-0.1,0.6-0.3,1.4-0.6,2.5L45.2,26H48.7z M63.3,26.6c0,1.6-0.4,2.9-1.3,3.9c-0.8,0.8-1.7,1.3-2.9,1.3
			c-1.2,0-2.1-0.5-2.7-1.4v5h-2.1V25.1c0-1,0-2.1-0.1-3.2h1.8l0.1,1.5h0c0.7-1.1,1.8-1.7,3.2-1.7c1.1,0,2,0.4,2.8,1.3
			C62.9,24,63.3,25.1,63.3,26.6L63.3,26.6z M61.2,26.7c0-0.9-0.2-1.7-0.6-2.3c-0.5-0.6-1.1-0.9-1.8-0.9c-0.5,0-1,0.2-1.4,0.5
			c-0.4,0.3-0.7,0.8-0.8,1.4c-0.1,0.2-0.1,0.4-0.1,0.6v1.6c0,0.7,0.2,1.3,0.6,1.8c0.4,0.5,1,0.7,1.6,0.7c0.8,0,1.4-0.3,1.8-0.9
			C60.9,28.5,61.2,27.7,61.2,26.7z M74.1,26.6c0,1.6-0.4,2.9-1.3,3.9c-0.8,0.8-1.7,1.3-2.9,1.3c-1.2,0-2.1-0.5-2.7-1.4v5h-2.1V25.1
			c0-1,0-2.1-0.1-3.2h1.8l0.1,1.5h0c0.7-1.1,1.8-1.7,3.2-1.7c1.1,0,2,0.4,2.8,1.3C73.7,24,74.1,25.1,74.1,26.6L74.1,26.6z M72,26.7
			c0-0.9-0.2-1.7-0.6-2.3c-0.5-0.6-1.1-0.9-1.8-0.9c-0.5,0-1,0.2-1.4,0.5c-0.4,0.3-0.7,0.8-0.8,1.4c-0.1,0.2-0.1,0.4-0.1,0.6v1.6
			c0,0.7,0.2,1.3,0.6,1.8c0.4,0.5,1,0.7,1.6,0.7c0.8,0,1.4-0.3,1.8-0.9C71.7,28.5,72,27.7,72,26.7L72,26.7z M86.2,27.8
			c0,1.1-0.4,2.1-1.2,2.8c-0.8,0.8-2,1.2-3.5,1.2c-1.4,0-2.5-0.3-3.4-0.8l0.5-1.8c0.9,0.6,2,0.8,3,0.8c0.8,0,1.4-0.2,1.8-0.5
			c0.4-0.4,0.7-0.8,0.7-1.5c0-0.3,0-0.5-0.1-0.7c-0.1-0.2-0.2-0.4-0.4-0.6c-0.4-0.4-1-0.7-1.8-1c-2.3-0.9-3.4-2.1-3.4-3.8
			c0-1.1,0.4-2,1.2-2.7c0.8-0.7,1.9-1,3.2-1c1.2,0,2.2,0.2,3,0.6l-0.5,1.7c-0.7-0.4-1.6-0.6-2.5-0.6c-0.7,0-1.3,0.2-1.7,0.6
			c-0.2,0.2-0.3,0.3-0.4,0.5c-0.1,0.2-0.1,0.4-0.1,0.7c0,0.2,0,0.5,0.2,0.7c0.1,0.2,0.3,0.4,0.4,0.6c0.3,0.3,1,0.7,1.9,1
			c1.1,0.5,1.9,1,2.5,1.6C85.9,26.1,86.2,26.9,86.2,27.8L86.2,27.8z M93.1,23.5h-2.3v4.7c0,1.2,0.4,1.8,1.2,1.8c0.3,0,0.6,0,0.9-0.1
			l0.1,1.6c-0.4,0.2-1,0.2-1.6,0.2c-0.8,0-1.5-0.3-1.9-0.8c-0.5-0.5-0.7-1.4-0.7-2.6v-4.8h-1.4v-1.6h1.4v-1.8l2-0.6v2.4h2.3V23.5
			L93.1,23.5z M103.4,26.6c0,1.5-0.4,2.7-1.2,3.6c-0.9,1-2,1.5-3.4,1.5c-1.4,0-2.5-0.5-3.3-1.4s-1.2-2.1-1.2-3.5
			c0-1.5,0.4-2.7,1.3-3.7c0.8-0.9,2-1.4,3.4-1.4c1.4,0,2.5,0.5,3.3,1.4C103,24,103.4,25.2,103.4,26.6L103.4,26.6z M101.3,26.7
			c0-0.9-0.2-1.6-0.6-2.3c-0.4-0.8-1.1-1.1-1.9-1.1c-0.8,0-1.5,0.4-1.9,1.1c-0.4,0.6-0.6,1.4-0.6,2.3c0,0.9,0.2,1.6,0.6,2.3
			c0.5,0.8,1.1,1.1,1.9,1.1c0.8,0,1.4-0.4,1.9-1.2C101.1,28.3,101.3,27.6,101.3,26.7L101.3,26.7z M110.2,23.8
			c-0.2,0-0.4-0.1-0.7-0.1c-0.7,0-1.3,0.3-1.7,0.9c-0.3,0.5-0.5,1.1-0.5,1.9v5h-2.1v-6.6c0-1,0-2-0.1-3h1.8l0.1,1.8h0.1
			c0.2-0.6,0.6-1.1,1-1.5c0.4-0.3,1-0.5,1.5-0.5c0.2,0,0.3,0,0.5,0L110.2,23.8L110.2,23.8z M119.5,26.3c0,0.3,0,0.6-0.1,1h-6.3
			c0,0.9,0.3,1.7,0.9,2.2c0.5,0.4,1.2,0.7,2,0.7c0.9,0,1.8-0.2,2.5-0.5l0.3,1.5c-0.9,0.4-1.9,0.6-3.1,0.6c-1.5,0-2.6-0.4-3.4-1.3
			c-0.8-0.9-1.2-2-1.2-3.5c0-1.4,0.4-2.7,1.2-3.6c0.8-1,1.9-1.5,3.3-1.5c1.4,0,2.4,0.5,3.1,1.5C119.3,24.1,119.5,25.1,119.5,26.3z
			 M117.5,25.7c0-0.6-0.1-1.2-0.4-1.6c-0.4-0.6-0.9-0.9-1.7-0.9c-0.7,0-1.2,0.3-1.7,0.9c-0.3,0.5-0.6,1-0.6,1.7L117.5,25.7
			L117.5,25.7z"/>
		<path class="st1" d="M44.2,13.5c-0.5,0-1,0-1.5-0.1V7c0.6-0.1,1.2-0.1,1.8-0.1C46.9,6.8,48,8,48,10C48,12.3,46.7,13.5,44.2,13.5z
			 M44.6,7.7c-0.3,0-0.6,0-0.8,0.1v4.9c0.2,0,0.5,0,0.7,0c1.6,0,2.5-0.9,2.5-2.6C46.9,8.5,46.1,7.7,44.6,7.7z M51.4,13.5
			c-1.3,0-2.2-1-2.2-2.4c0-1.5,0.9-2.5,2.3-2.5c1.3,0,2.2,1,2.2,2.4C53.7,12.5,52.8,13.5,51.4,13.5z M51.5,9.4
			c-0.7,0-1.2,0.7-1.2,1.7c0,1,0.5,1.7,1.2,1.7c0.7,0,1.2-0.8,1.2-1.7C52.7,10.1,52.2,9.4,51.5,9.4L51.5,9.4z M61.4,8.7L60,13.4H59
			l-0.6-2c-0.1-0.5-0.3-1-0.4-1.5h0c-0.1,0.5-0.2,1-0.4,1.5l-0.6,2h-0.9l-1.4-4.7h1.1l0.5,2.2c0.1,0.5,0.2,1,0.3,1.5h0
			c0.1-0.5,0.2-1,0.4-1.5l0.7-2.3h0.8l0.6,2.2c0.2,0.5,0.3,1.1,0.4,1.6h0c0.1-0.5,0.2-1,0.3-1.6l0.6-2.2L61.4,8.7L61.4,8.7z
			 M66.7,13.4h-1v-2.7c0-0.8-0.3-1.3-0.9-1.3c-0.6,0-1,0.5-1,1.2v2.8h-1v-3.4c0-0.4,0-0.9,0-1.3h0.9l0,0.7h0
			c0.3-0.5,0.8-0.8,1.5-0.8c1,0,1.6,0.8,1.6,2L66.7,13.4L66.7,13.4z M69.6,13.4h-1V6.6h1L69.6,13.4z M73.3,13.5
			c-1.3,0-2.2-1-2.2-2.4c0-1.5,0.9-2.5,2.3-2.5c1.3,0,2.2,1,2.2,2.4C75.6,12.5,74.7,13.5,73.3,13.5z M73.3,9.4
			c-0.7,0-1.2,0.7-1.2,1.7c0,1,0.5,1.7,1.2,1.7c0.7,0,1.2-0.8,1.2-1.7C74.5,10.1,74.1,9.4,73.3,9.4L73.3,9.4z M79.6,13.4l-0.1-0.5h0
			c-0.3,0.4-0.8,0.6-1.4,0.6c-0.8,0-1.4-0.6-1.4-1.4c0-1.2,1-1.8,2.7-1.8v-0.1c0-0.6-0.3-0.9-1-0.9c-0.4,0-0.8,0.1-1.2,0.3L77.1,9
			c0.4-0.3,1-0.4,1.6-0.4c1.2,0,1.8,0.6,1.8,2v1.7c0,0.4,0,0.8,0.1,1.1L79.6,13.4L79.6,13.4z M79.5,11.1c-1.1,0-1.7,0.3-1.7,1
			c0,0.5,0.3,0.7,0.7,0.7c0.5,0,1-0.4,1-1V11.1z M85.5,13.4l0-0.8h0c-0.3,0.6-0.8,0.9-1.5,0.9c-1.1,0-1.9-1-1.9-2.4
			c0-1.5,0.9-2.5,2-2.5c0.6,0,1.1,0.2,1.3,0.6h0V6.6h1v5.6c0,0.5,0,0.9,0,1.3H85.5z M85.3,10.7c0-0.7-0.4-1.2-1.1-1.2
			c-0.8,0-1.2,0.7-1.2,1.7c0,1,0.5,1.6,1.2,1.6c0.6,0,1.1-0.6,1.1-1.3L85.3,10.7L85.3,10.7z M92.9,13.5c-1.3,0-2.2-1-2.2-2.4
			c0-1.5,0.9-2.5,2.3-2.5c1.3,0,2.2,1,2.2,2.4C95.2,12.5,94.2,13.5,92.9,13.5z M92.9,9.4c-0.7,0-1.2,0.7-1.2,1.7
			c0,1,0.5,1.7,1.2,1.7s1.2-0.8,1.2-1.7C94.1,10.1,93.6,9.4,92.9,9.4z M100.7,13.4h-1v-2.7c0-0.8-0.3-1.3-0.9-1.3
			c-0.6,0-1,0.5-1,1.2v2.8h-1v-3.4c0-0.4,0-0.9,0-1.3h0.9l0,0.7h0c0.3-0.5,0.8-0.8,1.5-0.8c1,0,1.6,0.8,1.6,2V13.4z M107.6,9.5h-1.1
			v2.3c0,0.6,0.2,0.9,0.6,0.9c0.2,0,0.3,0,0.5,0l0,0.8c-0.2,0.1-0.5,0.1-0.8,0.1c-0.8,0-1.3-0.5-1.3-1.7V9.5h-0.7V8.7h0.7V7.9l1-0.3
			v1.2h1.1V9.5L107.6,9.5z M113,13.4h-1v-2.7c0-0.8-0.3-1.3-0.9-1.3c-0.5,0-1,0.4-1,1.1v2.8h-1V6.6h1v2.8h0c0.3-0.5,0.8-0.8,1.4-0.8
			c1,0,1.6,0.8,1.6,2L113,13.4L113,13.4z M118.6,11.3h-3.1c0,0.9,0.6,1.4,1.5,1.4c0.4,0,0.8-0.1,1.2-0.2l0.2,0.7
			c-0.4,0.2-1,0.3-1.5,0.3c-1.4,0-2.3-0.9-2.3-2.4c0-1.4,0.9-2.5,2.2-2.5c1.2,0,1.9,0.9,1.9,2.2C118.6,11,118.6,11.2,118.6,11.3
			L118.6,11.3z M117.6,10.6c0-0.7-0.4-1.2-1-1.2c-0.6,0-1.1,0.5-1.1,1.2H117.6z"/>
	</g>
</g>
</svg>
