<svg width="24" height="24" viewBox="0 0 24 24" fill="none" xmlns="http://www.w3.org/2000/svg">
<g opacity="0.72">
<path fill-rule="evenodd" clip-rule="evenodd" d="M15 9V11H9V9C9 7.34315 10.3431 6 12 6C13.6569 6 15 7.34315 15 9ZM8 11V9C8 6.79086 9.79086 5 12 5C14.2091 5 16 6.79086 16 9V11H17C17.5523 11 18 11.4477 18 12V17.5C18 18.3284 17.3284 19 16.5 19H7.5C6.67157 19 6 18.3284 6 17.5V12C6 11.4477 6.44772 11 7 11H8ZM8 12H7V17.5C7 17.7761 7.22386 18 7.5 18H16.5C16.7761 18 17 17.7761 17 17.5V12H16H8ZM12.5 15.3662C12.7989 15.1933 13 14.8701 13 14.5C13 13.9477 12.5523 13.5 12 13.5C11.4477 13.5 11 13.9477 11 14.5C11 14.8701 11.2011 15.1933 11.5 15.3662V16.5H12.5V15.3662Z" fill="#D3D1CB"/>
</g>
</svg>
