<svg width="18" height="18" viewBox="0 0 18 18" fill="none" xmlns="http://www.w3.org/2000/svg">
<path fill-rule="evenodd" clip-rule="evenodd" d="M7.98921 1.50005C7.98843 1.50258 7.98819 1.50593 7.98819 1.50593V3.27668C7.98819 3.50594 7.83227 3.70583 7.60991 3.76164C7.16932 3.87222 6.7161 4.09723 6.20069 4.35595C6.00776 4.45279 5.77447 4.41489 5.62213 4.26195L4.37008 3.00495L2.99705 4.3834L4.25189 5.64319C4.41053 5.80246 4.44338 6.04802 4.33218 6.24338C4.08844 6.67161 3.86567 7.12599 3.7559 7.62189C3.70522 7.85086 3.50222 8.01383 3.26772 8.01383H1.50394L1.50103 8.01389C1.50024 8.01642 1.5 8.01976 1.5 8.01976V9.98024C1.5 9.9823 1.50016 9.98551 1.50016 9.98551L1.50394 9.98617H3.33071C3.54612 9.98617 3.73731 10.1241 3.80522 10.3286L3.8056 10.3297L3.80739 10.335L3.81521 10.358C3.82227 10.3786 3.83297 10.4094 3.84706 10.449C3.87527 10.5283 3.91697 10.6425 3.97018 10.7799C4.07704 11.0557 4.22835 11.4199 4.4082 11.7811C4.50385 11.9731 4.4663 12.2048 4.31488 12.3568L3.06005 13.6166L3.06324 13.6198L4.37036 14.9948L5.62213 13.7381C5.78173 13.5778 6.02902 13.5447 6.22519 13.6572C6.6517 13.9019 7.10385 14.1253 7.59706 14.2353C7.82564 14.2863 7.98819 14.4891 7.98819 14.7233V16.4941C7.98819 16.4961 7.98835 16.4993 7.98835 16.4993L7.99098 16.4999L7.99213 16.5H9.94488L9.94779 16.4999C9.94858 16.4974 9.94882 16.4941 9.94882 16.4941V14.7233C9.94882 14.4941 10.1047 14.2942 10.3271 14.2384C10.7748 14.126 11.2987 13.8942 11.7118 13.6572C11.908 13.5447 12.1553 13.5778 12.3149 13.7381L13.5669 14.9951L14.9397 13.6796L13.6851 12.42C13.5426 12.2769 13.5001 12.0621 13.5776 11.8755L14.2075 10.3577C14.285 10.1711 14.4672 10.0494 14.6693 10.0494H16.4961L16.499 10.0494C16.4998 10.0468 16.5 10.0435 16.5 10.0435V8.083C16.5 8.08094 16.4998 8.07773 16.4998 8.07773L16.4961 8.07708H14.7323C14.5027 8.07708 14.3026 7.9207 14.2471 7.69789C14.135 7.24783 13.904 6.72157 13.6678 6.30662C13.5566 6.11126 13.5895 5.8657 13.7481 5.70643L15.0029 4.44664L13.6299 3.06819L12.3779 4.32519C12.1961 4.50771 11.9053 4.52222 11.7063 4.3587C11.4305 4.13221 11.107 3.99933 10.8401 3.92377C10.7088 3.88657 10.5966 3.86481 10.5192 3.85253C10.4806 3.84642 10.4511 3.84273 10.4326 3.84067L10.4137 3.83872C10.4137 3.83872 10.4131 3.83864 10.4488 3.33992V3.83992C10.4367 3.83992 10.4256 3.83957 10.4137 3.83872C10.1544 3.82022 9.94882 3.60392 9.94882 3.33992V1.50593C9.94882 1.50386 9.94865 1.50066 9.94865 1.50066L9.95034 1.50122C9.95221 1.50194 9.95307 1.50258 9.95307 1.50258C9.95307 1.50258 9.94961 1.49881 9.94831 1.49588C9.94831 1.49588 9.94846 1.49776 9.94865 1.50066L9.94488 1.5H7.99213L7.98921 1.50005ZM7.98921 1.50005L7.98975 1.49851C7.99067 1.4961 7.9915 1.495 7.9915 1.495C7.9915 1.495 7.98769 1.49855 7.98425 1.50009L7.98275 1.5007C7.98275 1.5007 7.98535 1.50019 7.98921 1.50005ZM10.9488 2.91903V1.50593C10.9488 0.875291 10.4331 0.5 9.94488 0.5H7.99213C7.35919 0.5 6.98819 1.0206 6.98819 1.50593V2.90615C6.67371 3.01624 6.36674 3.15797 6.07608 3.30068L5.07079 2.29141C4.68639 1.9055 4.05377 1.9055 3.66937 2.29141L2.28354 3.68272C1.90024 4.06754 1.90024 4.69926 2.28354 5.08408L3.27986 6.08434C3.13411 6.36495 2.99343 6.67568 2.88557 7.01383H1.50394C0.871003 7.01383 0.5 7.53443 0.5 8.01976V9.98024C0.5 10.6109 1.01574 10.9862 1.50394 10.9862H2.97869C2.99658 11.034 3.01629 11.0858 3.03769 11.1411C3.12001 11.3536 3.2286 11.6193 3.35754 11.9009L2.34654 12.9159C1.96484 13.2991 1.96323 13.9272 2.34173 14.3124L3.66126 15.7003L3.66937 15.7086C4.05377 16.0945 4.68639 16.0945 5.07078 15.7086L6.06515 14.7103C6.34386 14.856 6.65242 14.9967 6.98819 15.1047V16.4941C6.98819 17.1247 7.50393 17.5 7.99213 17.5H9.94488C10.5778 17.5 10.9488 16.9794 10.9488 16.4941V15.0964C11.264 14.9902 11.5814 14.8529 11.8692 14.7076L12.8662 15.7086C13.249 16.0929 13.8779 16.0945 14.2628 15.7134L15.6452 14.3887L15.6535 14.3805C16.0368 13.9957 16.0368 13.364 15.6535 12.9792L14.6291 11.9507L15.0031 11.0494H16.4961C17.129 11.0494 17.5 10.5288 17.5 10.0435V8.083C17.5 7.45237 16.9843 7.07708 16.4961 7.07708H15.1062C15.0001 6.75969 14.8628 6.43994 14.7175 6.15019L15.7165 5.14732C16.0998 4.7625 16.0998 4.13078 15.7165 3.74596L14.3306 2.35465C13.9462 1.96874 13.3136 1.96874 12.9292 2.35465L11.9647 3.32295C11.6609 3.14275 11.3577 3.03102 11.1126 2.9616C11.0552 2.94536 11.0004 2.93126 10.9488 2.91903Z" fill="#F2F5F0"/>
<path fill-rule="evenodd" clip-rule="evenodd" d="M7 9C7 10.0618 7.88495 11 9 11C10.0618 11 11 10.115 11 9C11 7.93815 10.1151 7 9 7C7.88495 7 7 7.93815 7 9ZM9 12C7.3125 12 6 10.5938 6 9C6 7.40625 7.3125 6 9 6C10.6875 6 12 7.40625 12 9C12 10.6875 10.5938 12 9 12Z" fill="#F2F5F0"/>
</svg>
