<svg width="28" height="28" viewBox="0 0 28 28" fill="none" xmlns="http://www.w3.org/2000/svg">
<path fill-rule="evenodd" clip-rule="evenodd" d="M14 0.682927C6.64518 0.682927 0.682927 6.64518 0.682927 14C0.682927 21.3548 6.64518 27.3171 14 27.3171C21.3548 27.3171 27.3171 21.3548 27.3171 14C27.3171 6.64518 21.3548 0.682927 14 0.682927ZM0 14C0 6.26801 6.26801 0 14 0C21.732 0 28 6.26801 28 14C28 21.732 21.732 28 14 28C6.26801 28 0 21.732 0 14Z" fill="#F2F5F0"/>
<path fill-rule="evenodd" clip-rule="evenodd" d="M11.7464 15.7073V22.4C11.7464 22.5366 11.8147 22.6049 11.9512 22.6049H15.0244C15.161 22.6049 15.2293 22.5366 15.2293 22.4V13.9317H17.483C17.6195 13.9317 17.6878 13.8634 17.6878 13.7268L17.8927 11.1317C17.8927 10.9951 17.8244 10.9268 17.6878 10.9268H15.2293V9.08293C15.2293 8.67317 15.5707 8.33171 15.9805 8.33171H17.6878C17.8244 8.33171 17.8927 8.26341 17.8927 8.12683V5.6C17.8927 5.46341 17.8244 5.39512 17.6878 5.39512H14.7512C13.0439 5.39512 11.6098 6.76098 11.6098 8.53658V10.9268H10.039C9.90246 10.9268 9.83416 10.9951 9.83416 11.1317V13.7268C9.83416 13.8634 9.90246 13.9317 10.039 13.9317H11.6098V15.7073H11.7464Z" fill="#F2F5F0"/>
</svg>
