<svg width="12" height="12" viewBox="0 0 12 12" fill="none" xmlns="http://www.w3.org/2000/svg">
<path d="M5.3524 9.44114C5.34645 9.44425 5.34058 9.44749 5.33477 9.45085L2.97239 10.8147C2.93493 10.833 2.9108 10.8339 2.90022 10.8331C2.88805 10.8322 2.88106 10.8285 2.87702 10.8254C2.87288 10.8223 2.86881 10.8175 2.86598 10.8094C2.86354 10.8023 2.85863 10.783 2.86719 10.7471L2.86729 10.7471L2.86947 10.737L3.4628 7.99676C3.47033 7.96199 3.47412 7.92652 3.47412 7.89095C3.47412 7.88551 3.47413 7.88002 3.47413 7.8745C3.47418 7.76304 3.47424 7.63428 3.4531 7.50115C3.42901 7.34943 3.38142 7.20965 3.30686 7.05314C3.2796 6.99592 3.24171 6.9444 3.19521 6.90133L1.19333 5.04725C1.17819 5.02906 1.17151 5.01187 1.1686 4.99605C1.16486 4.9757 1.16684 4.95336 1.17413 4.93347C1.18083 4.91518 1.18922 4.90618 1.19239 4.90339C1.19286 4.90336 1.19345 4.90335 1.19415 4.90335C1.21683 4.90335 1.23949 4.9018 1.26197 4.89872L3.96236 4.52901C4.16598 4.52201 4.35995 4.45927 4.52681 4.31916C4.68456 4.18669 4.78123 4.01436 4.84951 3.87103C4.85358 3.86246 4.85742 3.85378 4.86101 3.845L5.92243 1.24537C5.94498 1.20173 5.96734 1.1826 5.97853 1.17509C5.99063 1.16696 5.99775 1.16663 6.00008 1.16663C6.00241 1.16663 6.00953 1.16696 6.02163 1.17509C6.03282 1.1826 6.05518 1.20173 6.07773 1.24537L7.13915 3.845C7.14274 3.85378 7.14657 3.86246 7.15065 3.87103C7.21893 4.01437 7.3156 4.18669 7.47336 4.31916C7.64021 4.45927 7.83418 4.52201 8.0378 4.52901L10.7382 4.89872C10.7537 4.90085 10.7694 4.90225 10.7851 4.90291C10.7954 4.91405 10.8109 4.93617 10.8222 4.96921C10.8297 4.99131 10.8324 5.00985 10.8332 5.02314C10.8295 5.02636 10.8259 5.02964 10.8223 5.03297L8.80495 6.90133C8.7973 6.90841 8.78988 6.91573 8.78269 6.92328C8.59353 7.12183 8.35271 7.56031 8.54776 8.0448L9.13069 10.737L9.13058 10.737L9.13297 10.7471C9.14153 10.783 9.13663 10.8023 9.13418 10.8094C9.13135 10.8175 9.12728 10.8223 9.12314 10.8254C9.1191 10.8285 9.11211 10.8322 9.09994 10.8331C9.08937 10.8339 9.06523 10.833 9.02778 10.8147L6.66539 9.45085C6.62681 9.42857 6.58541 9.41155 6.54232 9.40024C6.31187 9.33977 6.1036 9.29045 5.91108 9.29045C5.68079 9.29045 5.50948 9.3587 5.3524 9.44114Z" fill="#F2F5F0" stroke="#F2F5F0" stroke-miterlimit="10" stroke-linejoin="round"/>
</svg>
