<?xml version="1.0" encoding="utf-8"?>
<!-- Generator: Adobe Illustrator 25.2.3, SVG Export Plug-In . SVG Version: 6.00 Build 0)  -->
<svg version="1.1" id="Camada_1" xmlns="http://www.w3.org/2000/svg" xmlns:xlink="http://www.w3.org/1999/xlink" x="0px" y="0px"
	 viewBox="0 0 14 18" style="enable-background:new 0 0 14 18;" xml:space="preserve">
<style type="text/css">
	.st0{fill-rule:evenodd;clip-rule:evenodd;fill:#F2F5F0;}
	.st1{fill:none;stroke:#F2F5F0;}
</style>
<path class="st0" d="M6.1,0.7h5.4c1,0,1.8,0.8,1.8,1.8v13c0,1-0.8,1.8-1.8,1.8H2.5c-1,0-1.8-0.8-1.8-1.8V6.2L6.1,0.7z M6.6,1.7
	L1.7,6.6v8.9c0,0.4,0.3,0.8,0.8,0.8h9.1c0.4,0,0.8-0.3,0.8-0.8v-13c0-0.4-0.3-0.8-0.8-0.8H6.6z"/>
<path class="st0" d="M5.8,5.1V1.2h1v3.9c0,1-0.8,1.8-1.8,1.8H1.2v-1h3.9l0,0C5.5,5.9,5.8,5.6,5.8,5.1z"/>
<path class="st1" d="M3.5,11.3h7"/>
<path class="st1" d="M3.5,14.1h7"/>
<path class="st1" d="M3.5,8.5h7"/>
</svg>
