<svg width="14" height="18" viewBox="0 0 14 18" fill="none" xmlns="http://www.w3.org/2000/svg">
<path fill-rule="evenodd" clip-rule="evenodd" d="M6.14864 0.711914H11.5293C12.507 0.711914 13.2898 1.50783 13.2898 2.48344V15.5165C13.2898 16.4922 12.507 17.2881 11.5293 17.2881H2.47047C1.49275 17.2881 0.709961 16.4922 0.709961 15.5165V6.19813L6.14864 0.711914ZM6.5654 1.71191L1.70996 6.6098V15.5165C1.70996 15.9481 2.05322 16.2881 2.47047 16.2881H11.5293C11.9465 16.2881 12.2898 15.9481 12.2898 15.5165V2.48344C12.2898 2.05189 11.9465 1.71191 11.5293 1.71191H6.5654Z" fill="#F2F5F0"/>
<path fill-rule="evenodd" clip-rule="evenodd" d="M5.84862 5.12821V1.21191H6.84862V5.12821C6.84862 6.0998 6.0629 6.91847 5.06582 6.88278H1.20996V5.88278H5.08607L5.09663 5.88322C5.49749 5.90017 5.84862 5.56853 5.84862 5.12821Z" fill="#F2F5F0"/>
</svg>
