<svg width="16" height="16" viewBox="0 0 16 16" fill="none" xmlns="http://www.w3.org/2000/svg">
<path fill-rule="evenodd" clip-rule="evenodd" d="M8.00173 1.65661L2.03981 7.59521H2.81171V14.5H4.65295V12.574C4.65295 10.8403 5.95057 9.28198 7.72878 9.15044L7.73036 9.15032C8.74123 9.07876 9.6658 9.45987 10.3201 10.1138C10.9216 10.7112 11.2935 11.5458 11.2935 12.4597V14.4962H13.1919V7.59521H13.9603L8.00173 1.65661ZM8.43881 0.680389C8.19805 0.43999 7.80607 0.43987 7.56515 0.680031L0.682955 7.53531C0.297163 7.92109 0.559923 8.59521 1.1196 8.59521H1.81171V14.5239C1.81171 15.0629 2.24887 15.5 2.78779 15.5H5.03107C5.38583 15.5 5.65295 15.2088 5.65295 14.8781V12.574C5.65295 11.3145 6.59437 10.2375 7.80173 10.1478C8.51178 10.0977 9.15584 10.3638 9.61351 10.8215L9.61484 10.8228C10.0336 11.2384 10.2935 11.8202 10.2935 12.4597V14.8743C10.2935 15.2291 10.5847 15.4962 10.9154 15.4962H13.2158C13.7586 15.4962 14.1919 15.0437 14.1919 14.5125V8.59521H14.884C15.4568 8.59521 15.6912 7.90968 15.3175 7.53599L8.43881 0.680389Z" fill="#F2F5F0"/>
</svg>
