<svg width="29" height="28" viewBox="0 0 29 28" fill="none" xmlns="http://www.w3.org/2000/svg">
<path fill-rule="evenodd" clip-rule="evenodd" d="M14.5342 0.682927C7.17936 0.682927 1.21711 6.64518 1.21711 14C1.21711 21.3548 7.17936 27.3171 14.5342 27.3171C21.889 27.3171 27.8513 21.3548 27.8513 14C27.8513 6.64518 21.889 0.682927 14.5342 0.682927ZM0.53418 14C0.53418 6.26801 6.80219 0 14.5342 0C22.2662 0 28.5342 6.26801 28.5342 14C28.5342 21.732 22.2662 28 14.5342 28C6.80219 28 0.53418 21.732 0.53418 14Z" fill="#F2F5F0"/>
<path fill-rule="evenodd" clip-rule="evenodd" d="M20.0261 9.51611C20.0261 10.0729 19.5747 10.5241 19.0181 10.5241C18.4614 10.5241 18.0101 10.0729 18.0101 9.51611C18.0101 8.95934 18.4614 8.50811 19.0181 8.50811C19.5748 8.50811 20.0261 8.95934 20.0261 9.51611ZM14.5342 16.8C12.9878 16.8 11.7342 15.5464 11.7342 14C11.7342 12.4536 12.9878 11.2 14.5342 11.2C16.0806 11.2 17.3341 12.4536 17.3341 14C17.3341 15.5464 16.0806 16.8 14.5342 16.8ZM14.5342 9.68647C12.1519 9.68647 10.2206 11.6177 10.2206 14C10.2206 16.3823 12.1519 18.3135 14.5342 18.3135C16.9165 18.3135 18.8477 16.3823 18.8477 14C18.8477 11.6177 16.9165 9.68647 14.5342 9.68647ZM14.5342 7.11357C16.7771 7.11357 17.0428 7.12211 17.9284 7.16253C18.7474 7.19994 19.1922 7.3367 19.4882 7.45181C19.8803 7.60419 20.1601 7.78623 20.4541 8.08023C20.7481 8.3741 20.9301 8.65392 21.0825 9.0461C21.1975 9.34207 21.3344 9.78687 21.3718 10.6059C21.4122 11.4917 21.4207 11.7573 21.4207 14.0003C21.4207 16.2432 21.4122 16.5088 21.3718 17.3945C21.3344 18.2135 21.1976 18.6583 21.0825 18.9543C20.9301 19.3463 20.7481 19.6262 20.4541 19.9202C20.1602 20.2142 19.8804 20.3962 19.4882 20.5486C19.1922 20.6636 18.7474 20.8005 17.9284 20.8379C17.0428 20.8783 16.7771 20.8868 14.5342 20.8868C12.2911 20.8868 12.0255 20.8783 11.1398 20.8379C10.3208 20.8005 9.87599 20.6637 9.58002 20.5486C9.18797 20.3962 8.90815 20.2142 8.61415 19.9202C8.32028 19.6263 8.1381 19.3465 7.98572 18.9543C7.87075 18.6583 7.73385 18.2135 7.69645 17.3945C7.65602 16.5087 7.64749 16.2431 7.64749 14.0003C7.64749 11.7573 7.65602 11.4917 7.69645 10.6059C7.73385 9.78687 7.87062 9.34207 7.98572 9.0461C8.1381 8.65406 8.32015 8.37423 8.61415 8.08023C8.90802 7.78623 9.18784 7.60419 9.58002 7.45181C9.87599 7.33683 10.3208 7.19994 11.1398 7.16253C12.0256 7.12211 12.2912 7.11357 14.5342 7.11357ZM14.5342 5.6C12.2529 5.6 11.9668 5.60971 11.0709 5.65053C10.1768 5.69135 9.5661 5.83336 9.03192 6.041C8.47949 6.25559 8.01105 6.5429 7.54407 7.00989C7.07708 7.47688 6.78977 7.94531 6.57518 8.49774C6.36754 9.03206 6.22553 9.64263 6.18471 10.5367C6.14389 11.4326 6.13418 11.7187 6.13418 14C6.13418 16.2813 6.14389 16.5674 6.18471 17.4633C6.22553 18.3574 6.36754 18.9679 6.57518 19.5023C6.78977 20.0547 7.07708 20.5231 7.54407 20.9901C8.01105 21.4571 8.47949 21.7443 9.03192 21.959C9.56624 22.1666 10.1768 22.3087 11.0709 22.3495C11.9668 22.3903 12.2529 22.4 14.5342 22.4C16.8154 22.4 17.1016 22.3903 17.9975 22.3495C18.8915 22.3087 19.5021 22.1666 20.0364 21.959C20.5889 21.7443 21.0573 21.4571 21.5243 20.9901C21.9913 20.5231 22.2785 20.0547 22.4932 19.5023C22.7008 18.9679 22.8428 18.3574 22.8836 17.4633C22.9245 16.5674 22.9342 16.2813 22.9342 14C22.9342 11.7187 22.9245 11.4326 22.8836 10.5367C22.8428 9.64263 22.7008 9.03206 22.4932 8.49774C22.2785 7.94531 21.9913 7.47688 21.5243 7.00989C21.0573 6.5429 20.5889 6.25572 20.0364 6.041C19.5021 5.83336 18.8915 5.69135 17.9975 5.65053C17.1016 5.60971 16.8154 5.6 14.5342 5.6Z" fill="#F2F5F0"/>
</svg>
