<svg width="14" height="18" viewBox="0 0 14 18" fill="none" xmlns="http://www.w3.org/2000/svg">
<path d="M2.11315 0.5C1.24823 0.5 0.5 1.1719 0.5 2.0552V15.9448C0.5 16.8281 1.24824 17.5 2.11315 17.5H8.88685C9.75176 17.5 10.5 16.8281 10.5 15.9448V10.9853H9.5V15.9448C9.5 16.2261 9.25052 16.5 8.88685 16.5H2.11315C1.74947 16.5 1.5 16.2261 1.5 15.9448V2.0552C1.5 1.77388 1.74948 1.5 2.11315 1.5H8.88685C9.25052 1.5 9.5 1.77388 9.5 2.0552V5.0254H10.5V2.0552C10.5 1.1719 9.75176 0.5 8.88685 0.5H2.11315Z" fill="#068E87"/>
<path d="M4 2.5H7V3.5H4V2.5Z" fill="#068E87"/>
<path d="M3 13.5H6V12.5H3V13.5Z" fill="#068E87"/>
<path d="M6 15.5H3V14.5H6V15.5Z" fill="#068E87"/>
<path d="M8.00204 8.93561C8.00069 8.9569 8 8.97837 8 9C8 9.55228 8.44772 10 9 10C9.55229 10 10 9.55228 10 9C10 8.87154 9.97578 8.74873 9.93165 8.6359L12.7491 5.1141L12.853 6.02954L13.5982 5.94492L13.3726 3.95769C13.3492 3.75191 13.1635 3.60403 12.9577 3.62739L10.9705 3.85303L11.0551 4.59824L11.9637 4.49507L9.15071 8.01128C9.10156 8.00385 9.05123 8 9 8C8.84075 8 8.6902 8.03722 8.55657 8.10344L6.99796 7.06437C6.99931 7.04309 7 7.02162 7 7C7 6.44771 6.55229 6 6 6C5.44772 6 5 6.44771 5 7C5 7.08959 5.01178 7.17643 5.03388 7.25906L2.14648 10.1465L2.85359 10.8536L5.74101 7.96614C5.82362 7.98822 5.91043 8 6 8C6.15925 8 6.30981 7.96277 6.44345 7.89655L8.00204 8.93561Z" fill="#068E87"/>
</svg>
