<svg width="29" height="28" viewBox="0 0 29 28" fill="none" xmlns="http://www.w3.org/2000/svg">
<path fill-rule="evenodd" clip-rule="evenodd" d="M14.9343 0.682927C7.57951 0.682927 1.61725 6.64518 1.61725 14C1.61725 21.3548 7.57951 27.3171 14.9343 27.3171C22.2891 27.3171 28.2514 21.3548 28.2514 14C28.2514 6.64518 22.2891 0.682927 14.9343 0.682927ZM0.934326 14C0.934326 6.26801 7.20234 0 14.9343 0C22.6663 0 28.9343 6.26801 28.9343 14C28.9343 21.732 22.6663 28 14.9343 28C7.20234 28 0.934326 21.732 0.934326 14Z" fill="#F2F5F0"/>
<path d="M12.4668 19.5384C12.4663 19.6486 12.465 19.6866 12.4486 19.8592C12.4139 20.2257 12.2232 20.539 11.9715 20.8161C11.8527 20.9468 11.7185 21.0651 11.5698 21.1651C11.2744 21.3641 10.9296 21.4836 10.5737 21.5427C9.79979 21.6709 9.06743 21.6116 8.59677 21.0786C8.36377 20.8146 8.19948 20.5051 8.15436 20.1619C8.09441 19.7064 8.15661 19.1967 8.51163 18.8569C8.84232 18.5405 9.31081 18.3636 9.75464 18.2401C9.8388 18.2168 9.92355 18.1953 10.0089 18.1758C10.741 18.0079 11.2223 18.0276 11.4314 17.8006C11.6406 17.5734 11.6197 17.1488 11.6197 16.3885C11.6197 15.6283 11.6197 9.95098 11.6197 9.95098C11.6197 9.84755 11.6197 9.74409 11.6197 9.64069C11.6197 9.4922 11.6197 9.34369 11.6197 9.19518C11.6197 9.08815 11.637 8.99624 11.6983 8.90533C11.8085 8.74185 11.9993 8.65645 12.1828 8.61118C12.1869 8.61016 12.191 8.60919 12.1951 8.60822C12.2375 8.59815 12.2803 8.58915 12.3228 8.5802C12.3902 8.56602 12.4576 8.55234 12.5251 8.53878C12.6146 8.52078 12.7041 8.50307 12.7936 8.48548C12.9025 8.46409 13.0113 8.44289 13.1202 8.42178C13.2457 8.39746 13.3712 8.37329 13.4967 8.34919C13.6361 8.32243 13.7756 8.29581 13.915 8.26921C14.0655 8.24052 14.216 8.2119 14.3666 8.18335C14.5255 8.15318 14.6845 8.12309 14.8436 8.09308C15.0082 8.06197 15.1729 8.03091 15.3377 7.99991C15.5053 7.96834 15.673 7.93683 15.8406 7.90534C16.0085 7.87383 16.1765 7.84232 16.3443 7.81089C16.5098 7.77988 16.6751 7.74893 16.8405 7.71798C17.0007 7.68803 17.1609 7.6581 17.3211 7.62823C17.4734 7.5998 17.6255 7.57141 17.7777 7.54304C17.9192 7.51666 18.0608 7.4903 18.2023 7.46395C18.3304 7.44009 18.4584 7.41629 18.5867 7.39243C18.6984 7.37161 18.8105 7.35079 18.9224 7.33C19.0154 7.31269 19.1085 7.29539 19.2015 7.27814C19.273 7.2649 19.3443 7.25163 19.4157 7.23838C19.5824 7.20744 19.7627 7.15886 19.9144 7.26522C20.0526 7.36234 20.1066 7.53852 20.1252 7.7006C20.1316 7.75605 20.1343 7.81193 20.1343 7.86773C20.1343 8.64476 20.1343 8.52927 20.1343 8.52927C20.1343 8.59904 20.1343 8.66881 20.1343 8.73855C20.1343 8.93042 20.1343 9.12227 20.1343 9.31411C20.1343 9.60224 20.1343 9.89037 20.1343 10.1785C20.1343 10.5371 20.1343 10.8956 20.1343 11.2542C20.1343 11.6574 20.1343 12.0607 20.1343 12.4637C20.1343 12.8857 20.1343 13.3078 20.1343 13.7298C20.1343 14.1447 20.1343 14.5598 20.1343 14.9748C20.1343 15.357 20.1343 15.739 20.1343 16.1213C20.1343 16.4448 20.1343 16.7682 20.1343 17.0917C20.1343 17.3307 20.1343 17.5697 20.1343 17.8087C20.1343 18.263 20.1152 18.7517 19.8569 19.1475C19.6371 19.4844 19.25 19.7062 18.8904 19.8533C18.6674 19.9445 18.4353 20.0131 18.199 20.0577C17.6926 20.1534 17.1841 20.1396 16.7125 19.9159C16.5447 19.8362 16.3874 19.7361 16.249 19.6164C15.8759 19.2938 15.7248 18.8702 15.757 18.3957C15.7681 18.2337 15.7986 18.0724 15.8516 17.9178C15.9495 17.6327 16.1279 17.4323 16.3718 17.2484C16.647 17.0408 16.9663 16.8809 17.3048 16.7885C17.5341 16.7259 17.7664 16.6744 18.001 16.6365C18.2138 16.602 18.4302 16.5881 18.6409 16.5441C18.9888 16.4716 19.2964 16.2804 19.2973 15.8554C19.2976 15.7542 19.2973 15.6529 19.2973 15.5517C19.2973 15.3951 19.2973 15.2386 19.2973 15.082C19.2973 14.8857 19.2973 14.6895 19.2973 14.4931C19.2973 14.2727 19.2973 14.0523 19.2973 13.8319C19.2973 13.603 19.2973 13.374 19.2973 13.1451C19.2973 12.9233 19.2973 12.7015 19.2973 12.4797C19.2973 12.2806 19.2973 12.0815 19.2973 11.8824C19.2973 11.7217 19.2973 11.5609 19.2973 11.4002C19.2973 11.2934 19.2973 11.1866 19.2973 11.0798C19.2973 10.984 19.2999 10.8968 19.2401 10.8149C19.1691 10.7175 19.0455 10.6891 18.9261 10.6993C18.9191 10.6999 18.9121 10.7006 18.9051 10.7015C18.8459 10.7085 18.787 10.7194 18.7283 10.7294C18.616 10.7485 18.504 10.7686 18.392 10.7887C18.2365 10.8167 18.0813 10.8451 17.9261 10.8736C17.7378 10.9082 17.5495 10.9431 17.3613 10.9782C17.1499 11.0175 16.9387 11.057 16.7275 11.0965C16.5034 11.1385 16.2792 11.1807 16.055 11.2229C15.8281 11.2657 15.6013 11.3085 15.3743 11.3514C15.1547 11.393 14.9349 11.4346 14.7153 11.4762C14.5131 11.5146 14.3107 11.553 14.1086 11.5915C13.9337 11.6247 13.7589 11.658 13.5841 11.6912C13.4468 11.7174 13.3095 11.7435 13.1721 11.7697C13.0825 11.7868 12.9927 11.8039 12.9031 11.8211C12.7992 11.8409 12.7164 11.8612 12.644 11.9373C12.5315 12.0556 12.4802 12.2261 12.4802 12.3788C12.48 12.882 12.4669 19.5306 12.4668 19.5384Z" fill="#F2F5F0"/>
</svg>
