<svg width="29" height="28" viewBox="0 0 29 28" fill="none" xmlns="http://www.w3.org/2000/svg">
<path fill-rule="evenodd" clip-rule="evenodd" d="M14.1328 0.682927C6.778 0.682927 0.815739 6.64518 0.815739 14C0.815739 21.3548 6.778 27.3171 14.1328 27.3171C21.4876 27.3171 27.4499 21.3548 27.4499 14C27.4499 6.64518 21.4876 0.682927 14.1328 0.682927ZM0.132812 14C0.132812 6.26801 6.40083 0 14.1328 0C21.8648 0 28.1328 6.26801 28.1328 14C28.1328 21.732 21.8648 28 14.1328 28C6.40083 28 0.132812 21.732 0.132812 14Z" fill="#F2F5F0"/>
<path d="M7.84987 20.4878V10.9268H10.8547V20.4878H7.84987ZM9.35231 6.14634C10.3084 6.14634 11.0596 6.89756 11.0596 7.85366C11.0596 8.80976 10.3084 9.56098 9.35231 9.56098C8.39621 9.56098 7.64499 8.80976 7.64499 7.85366C7.5767 6.89756 8.39621 6.14634 9.35231 6.14634Z" fill="#F2F5F0"/>
<path d="M15.6352 10.9268V12.2244C16.1815 11.4732 17.0011 10.6537 18.4352 10.6537C21.4401 10.6537 21.9864 12.6341 21.9864 15.2293V20.4878H18.9815V15.8439C18.9815 14.7512 18.9815 13.3171 17.4108 13.3171C15.8401 13.3171 15.6352 14.5463 15.6352 15.7756V20.5561H12.6303V10.9268H15.6352Z" fill="#F2F5F0"/>
</svg>
