<svg width="17" height="14" viewBox="0 0 17 14" fill="none" xmlns="http://www.w3.org/2000/svg">
<path fill-rule="evenodd" clip-rule="evenodd" d="M5 1.5C3.81778 1.5 2.83333 2.49274 2.83333 3.75C2.83333 5.00726 3.81778 6 5 6C6.18223 6 7.16667 5.00726 7.16667 3.75C7.16667 2.49274 6.18223 1.5 5 1.5ZM1.83333 3.75C1.83333 1.96969 3.23671 0.5 5 0.5C6.76329 0.5 8.16667 1.96969 8.16667 3.75C8.16667 5.53031 6.76329 7 5 7C3.23671 7 1.83333 5.53031 1.83333 3.75ZM17 5L11 5V4L17 4V5ZM0.5 9.24964C0.5 7.84922 1.60474 6.6875 2.99965 6.6875V7.6875C2.18581 7.6875 1.5 8.37228 1.5 9.24964V12.5H8.5V9.24964C8.5 8.37228 7.81419 7.6875 7.00035 7.6875V6.6875C8.39526 6.6875 9.5 7.84922 9.5 9.24964V13.5H0.5V9.24964ZM17 8L11 8V7L17 7V8ZM17 11L11 11V10L17 10V11Z" fill="#F2F5F0"/>
</svg>
