<svg width="14" height="18" viewBox="0 0 14 18" fill="none" xmlns="http://www.w3.org/2000/svg">
<path fill-rule="evenodd" clip-rule="evenodd" d="M6.14864 0.711914H11.5293C12.507 0.711914 13.2898 1.50783 13.2898 2.48344V15.5165C13.2898 16.4922 12.507 17.2881 11.5293 17.2881H2.47047C1.49275 17.2881 0.709961 16.4922 0.709961 15.5165V6.19813L6.14864 0.711914ZM6.5654 1.71191L1.70996 6.6098V15.5165C1.70996 15.9481 2.05322 16.2881 2.47047 16.2881H11.5293C11.9465 16.2881 12.2898 15.9481 12.2898 15.5165V2.48344C12.2898 2.05189 11.9465 1.71191 11.5293 1.71191H6.5654Z" fill="#F2F5F0"/>
<path fill-rule="evenodd" clip-rule="evenodd" d="M5.84862 5.12821V1.21191H6.84862V5.12821C6.84862 6.0998 6.0629 6.91847 5.06582 6.88278H1.20996V5.88278H5.08607L5.09663 5.88322C5.49749 5.90017 5.84862 5.56853 5.84862 5.12821Z" fill="#F2F5F0"/>
<path d="M3.4511 14V10.5446H4.39965C4.76745 10.5446 5.05298 10.6414 5.25624 10.835C5.46272 11.0285 5.56597 11.2996 5.56597 11.648C5.56597 11.9997 5.46111 12.2771 5.2514 12.4804C5.04491 12.6837 4.76261 12.7853 4.40448 12.7853H4.10928V14H3.4511ZM4.37545 12.2094C4.73035 12.2094 4.90779 12.0255 4.90779 11.6577C4.90779 11.2996 4.73035 11.1205 4.37545 11.1205H4.10928V12.2094H4.37545Z" fill="#F2F5F0"/>
<path d="M6.00319 14V10.5446H6.99045C7.44859 10.5446 7.79864 10.6914 8.04062 10.985C8.28582 11.2754 8.40842 11.6964 8.40842 12.2481C8.40842 12.7998 8.27937 13.2305 8.02126 13.5402C7.76638 13.8467 7.40987 14 6.95173 14H6.00319ZM6.98077 13.3902C7.45826 13.3902 7.69701 13.0127 7.69701 12.2578C7.69701 11.5222 7.46956 11.1544 7.01464 11.1544H6.68556V13.3902H6.98077Z" fill="#F2F5F0"/>
<path d="M8.9239 14V10.5446H10.7581V11.1544H9.60627V11.9868H10.6806V12.5965H9.60627V14H8.9239Z" fill="#F2F5F0"/>
</svg>
