<svg width="14" height="14" viewBox="0 0 14 14" fill="none" xmlns="http://www.w3.org/2000/svg">
<path fill-rule="evenodd" clip-rule="evenodd" d="M2.30627 0.197112L2.30727 0.197665L12.3474 5.71076C13.3805 6.28257 13.3887 7.72236 12.3449 8.29091L12.3439 8.29146L4.06218 12.8354L2.30727 13.8026C1.30244 14.3582 0 13.6817 0 12.5132V1.48703C0 0.318776 1.30151 -0.358087 2.30627 0.197112ZM1.77139 1.13666C1.44665 0.956919 1.09375 1.19669 1.09375 1.48703V12.5132C1.09375 12.8036 1.44665 13.0433 1.77139 12.8636L3.52929 11.8948L11.8133 7.34955L11.8152 7.34853C12.0997 7.1938 12.1078 6.8144 11.8124 6.65021L1.7732 1.13766L1.77139 1.13666Z" fill="#F2F5F0"/>
</svg>
