<svg width="16" height="16" viewBox="0 0 16 16" fill="none" xmlns="http://www.w3.org/2000/svg">
<path fill-rule="evenodd" clip-rule="evenodd" d="M10.0653 10.0653C12.1391 7.99146 12.1391 4.62916 10.0653 2.55535C7.99146 0.48155 4.62916 0.481549 2.55535 2.55535C0.481549 4.62916 0.48155 7.99146 2.55535 10.0653C4.62916 12.1391 7.99146 12.1391 10.0653 10.0653ZM11.0022 12.2771L12.2771 11.0022L15.736 14.4611C16.088 14.8131 16.088 15.3839 15.736 15.736C15.3839 16.088 14.8131 16.088 14.4611 15.736L11.0022 12.2771ZM10.7724 1.84825C13.2367 4.31257 13.2367 8.30804 10.7724 10.7724C8.30804 13.2367 4.31257 13.2367 1.84825 10.7724C-0.616081 8.30804 -0.616083 4.31257 1.84825 1.84825C4.31257 -0.616082 8.30804 -0.616081 10.7724 1.84825Z" fill="#133A3B"/>
</svg>
