<svg width="14" height="16" viewBox="0 0 14 16" fill="none" xmlns="http://www.w3.org/2000/svg">
<path fill-rule="evenodd" clip-rule="evenodd" d="M5.44619 13.6062C5.44619 14.3834 6.11596 15.0588 6.9956 15.0588C7.87524 15.0588 8.54501 14.3834 8.54501 13.6062H9.47834C9.47834 14.9517 8.34121 16 6.9956 16C5.64999 16 4.51286 14.9517 4.51286 13.6062H5.44619Z" fill="#F2F5F0"/>
<path fill-rule="evenodd" clip-rule="evenodd" d="M1.47312 6.33788C1.47312 3.38752 3.97211 1.04015 7 1.04015C10.0279 1.04015 12.5269 3.38753 12.5269 6.33788C12.5269 6.48761 12.5267 6.63678 12.5265 6.78565C12.5262 7.08215 12.5258 7.37743 12.5269 7.67351L12.5269 7.67521C12.5269 9.10824 13.0169 10.3206 13.7073 10.9974L13.7105 11.0006C13.8779 11.1678 14 11.4066 14 11.6787V12.3877C14 12.9462 13.5322 13.3466 13.0215 13.3466H0.978474C0.457954 13.3466 0 12.9368 0 12.3877V11.6787C0 11.4066 0.122117 11.1679 0.289489 11.0006L0.291735 10.9983C0.979263 10.3205 1.47312 9.10705 1.47312 7.67521L1.47312 7.6735C1.47418 7.37742 1.47383 7.08212 1.47347 6.78561C1.47329 6.63676 1.47312 6.4876 1.47312 6.33788ZM7 1.98132C4.43807 1.98132 2.40645 3.95588 2.40645 6.33788C2.40645 6.48513 2.40663 6.63306 2.4068 6.78135C2.40716 7.07902 2.40752 7.37813 2.40645 7.67614C2.40624 9.3007 1.8498 10.7785 0.944225 11.6713L0.946478 11.6691C0.939179 11.6764 0.935188 11.6826 0.933333 11.6862V12.3863C0.933333 12.3863 0.93509 12.389 0.937475 12.3913C0.944076 12.3976 0.95722 12.4054 0.978474 12.4054H13.0215C13.0418 12.4054 13.0557 12.3977 13.0629 12.3909C13.065 12.389 13.0667 12.3865 13.0667 12.3865V11.6862C13.0649 11.6828 13.0611 11.6769 13.0544 11.67C12.1442 10.776 11.5938 9.29818 11.5936 7.6762C11.5925 7.37818 11.5928 7.07905 11.5932 6.78137C11.5934 6.63308 11.5936 6.48514 11.5936 6.33788C11.5936 3.95588 9.56193 1.98132 7 1.98132Z" fill="#F2F5F0"/>
<path fill-rule="evenodd" clip-rule="evenodd" d="M7 1.41176C6.56541 1.41176 6.26058 1.26847 6.26058 1.62112H5.32725C5.32725 0.700119 6.09944 0 7 0C7.90055 0 8.67275 0.70012 8.67275 1.62112H7.73942C7.73942 1.26847 7.43459 1.41176 7 1.41176Z" fill="#F2F5F0"/>
</svg>
