<svg width="29" height="28" viewBox="0 0 29 28" fill="none" xmlns="http://www.w3.org/2000/svg">
<path fill-rule="evenodd" clip-rule="evenodd" d="M14.7998 0.682927C7.44499 0.682927 1.48273 6.64518 1.48273 14C1.48273 21.3548 7.44499 27.3171 14.7998 27.3171C22.1546 27.3171 28.1169 21.3548 28.1169 14C28.1169 6.64518 22.1546 0.682927 14.7998 0.682927ZM0.799805 14C0.799805 6.26801 7.06782 0 14.7998 0C22.5318 0 28.7998 6.26801 28.7998 14C28.7998 21.732 22.5318 28 14.7998 28C7.06782 28 0.799805 21.732 0.799805 14Z" fill="#F2F5F0"/>
<path d="M13.3304 8.80434C12.3448 8.78034 11.2552 8.85634 10.1696 9.02354C9.4032 9.13794 8.6416 9.28034 7.9088 9.53314C7.352 9.72354 7.0712 10.3283 7.2568 10.8611C7.452 11.4227 8.028 11.7131 8.5944 11.5419C9.9984 11.1227 11.4456 10.9707 12.9024 10.9187C13.8544 10.8851 14.8016 10.9475 15.744 11.0475C16.896 11.1667 18.0288 11.3851 19.1376 11.7139C20.08 11.9947 20.98 12.3755 21.8368 12.8611C22.332 13.1419 22.8792 13.0323 23.2176 12.6091C23.56 12.1763 23.5368 11.6427 23.156 11.2243C23.0176 11.0675 22.8272 10.9771 22.6464 10.8771C21.5656 10.2819 20.4232 9.84914 19.2336 9.53474C17.3432 9.02353 15.4104 8.78034 13.3304 8.80434ZM13.2448 12.7171C12.8496 12.7267 12.4928 12.7363 12.136 12.7555C10.9456 12.8123 9.7848 13.0219 8.6424 13.3603C8.128 13.5123 7.876 13.9835 8.028 14.4931C8.1616 14.9403 8.6472 15.1931 9.132 15.0643C9.2984 15.0211 9.4656 14.9595 9.6368 14.9211C11.5312 14.4547 13.4496 14.3931 15.3776 14.6595C17.2008 14.9067 18.9288 15.4403 20.5088 16.3971C20.98 16.6827 21.4992 16.4731 21.7176 16.1259C21.9936 15.6931 21.8608 15.1355 21.4176 14.8643C20.856 14.5171 20.2704 14.2171 19.6656 13.9691C17.5912 13.1219 15.4344 12.7267 13.2448 12.7171ZM12.7832 16.4587C12.4264 16.4731 12.0688 16.4923 11.7168 16.5251C10.808 16.6011 9.9128 16.7587 9.0224 16.9627C8.6128 17.0579 8.3848 17.4291 8.4704 17.8003C8.5608 18.2003 8.908 18.4195 9.3368 18.3379C9.5704 18.2947 9.8032 18.2475 10.0368 18.1995C10.9888 17.9947 11.96 17.9043 12.9312 17.8659C13.564 17.8419 14.1976 17.8803 14.8256 17.9467C15.9208 18.0611 16.9728 18.3227 17.9864 18.7467C18.4768 18.9515 18.9336 19.2179 19.4048 19.4651C19.7424 19.6411 20.1616 19.5131 20.3328 19.1939C20.528 18.8323 20.4232 18.4371 20.076 18.2275C19.524 17.8899 18.9432 17.6083 18.3384 17.3611C16.5576 16.6251 14.692 16.4059 12.7832 16.4587Z" fill="#F2F5F0"/>
</svg>
