<svg width="29" height="28" viewBox="0 0 29 28" fill="none" xmlns="http://www.w3.org/2000/svg">
<path fill-rule="evenodd" clip-rule="evenodd" d="M14.3997 0.682927C7.04484 0.682927 1.08259 6.64518 1.08259 14C1.08259 21.3548 7.04484 27.3171 14.3997 27.3171C21.7545 27.3171 27.7167 21.3548 27.7167 14C27.7167 6.64518 21.7545 0.682927 14.3997 0.682927ZM0.399658 14C0.399658 6.26801 6.66767 0 14.3997 0C22.1316 0 28.3997 6.26801 28.3997 14C28.3997 21.732 22.1316 28 14.3997 28C6.66767 28 0.399658 21.732 0.399658 14Z" fill="#F2F5F0"/>
<path d="M19.2485 17.1415C19.9314 16.1854 20.546 15.0927 20.8192 13.9317C21.0924 12.839 21.229 11.7463 21.229 10.6537C21.229 10.5171 21.3655 10.5171 21.4338 10.4488C21.9802 10.039 22.3899 9.56098 22.7997 9.08293C22.868 8.94634 22.868 8.87805 22.868 8.80976C22.868 8.74146 22.868 8.80976 22.7997 8.80976C22.2533 9.08293 21.707 9.21951 21.0924 9.28781C21.3655 9.21951 21.7753 8.74146 21.9119 8.53659C22.1851 8.26341 22.3899 7.85366 22.4582 7.5122V7.4439C22.3899 7.4439 22.3899 7.4439 22.3899 7.4439C21.7753 7.78537 21.0924 8.05854 20.3412 8.19512C20.2729 8.19512 20.2729 8.19512 20.2046 8.12683C20.1363 8.05854 20.068 7.99024 19.9997 7.92195C19.7265 7.64878 19.3851 7.4439 19.0436 7.30732C18.5655 7.10244 18.0875 7.03415 17.5411 7.03415C17.0631 7.03415 16.5851 7.23902 16.107 7.4439C15.6972 7.64878 15.2875 7.99024 14.946 8.4C14.6046 8.80976 14.3997 9.2878 14.2631 9.76585C14.1265 10.2439 14.1265 10.722 14.1948 11.2L12.0094 10.8585C10.1655 10.3122 8.52651 9.3561 7.16066 7.78537C7.09237 7.71707 7.02408 7.71707 6.95578 7.78537C6.13627 9.01463 6.54603 10.9951 7.57042 11.9512C7.707 12.0878 7.84359 12.2244 7.98017 12.2927C7.91188 12.2927 7.22895 12.2244 6.61432 11.9512C6.54603 11.8829 6.47773 11.9512 6.47773 12.0195C6.47773 12.1561 6.47773 12.2927 6.47773 12.4293C6.61432 13.6585 7.50212 14.8195 8.6631 15.2976C8.79969 15.3659 8.93627 15.4341 9.14115 15.4341C8.86798 15.5024 8.59481 15.5024 7.84359 15.5024C7.77529 15.5024 7.707 15.5024 7.77529 15.639C8.32164 17.2098 9.6192 17.6878 10.507 17.961C10.6436 17.961 10.7802 17.961 10.8485 18.0293C10.507 18.5073 9.48261 18.8488 8.93627 19.0537C8.04847 19.3951 7.02408 19.5317 6.06798 19.3951C5.93139 19.3951 5.8631 19.3951 5.8631 19.3951C5.79481 19.3951 5.8631 19.4634 5.93139 19.5317C6.06798 19.6 6.20456 19.7366 6.40944 19.8049C6.8192 20.0098 7.29725 20.2829 7.707 20.4195C10.2338 21.3073 13.1021 21.3073 15.5607 20.2146C17.0631 19.4634 18.2924 18.3707 19.2485 17.1415Z" fill="#F2F5F0"/>
<path fill-rule="evenodd" clip-rule="evenodd" d="M10.985 20.9659C11.0533 20.9659 12.4192 20.9659 10.985 20.9659V20.9659Z" fill="#F2F5F0"/>
<path fill-rule="evenodd" clip-rule="evenodd" d="M11.5314 20.9659C11.8729 20.9659 11.5314 20.8976 11.5314 20.9659V20.9659Z" fill="#F2F5F0"/>
</svg>
