<svg width="14" height="18" viewBox="0 0 14 18" fill="none" xmlns="http://www.w3.org/2000/svg">
<path fill-rule="evenodd" clip-rule="evenodd" d="M7 1.5C5.06701 1.5 3.5 3.067 3.5 5C3.5 6.933 5.067 8.5 7 8.5C8.933 8.5 10.5 6.933 10.5 5C10.5 3.067 8.933 1.5 7 1.5ZM2.5 5C2.5 2.51472 4.51472 0.5 7 0.5C9.48528 0.5 11.5 2.51472 11.5 5C11.5 7.48528 9.48528 9.5 7 9.5C4.51472 9.5 2.5 7.48528 2.5 5ZM0.5 12.9995C0.5 11.0668 2.06677 9.5 3.99948 9.5V10.5C2.61905 10.5 1.5 11.6191 1.5 12.9995V16.5H12.5V12.9995C12.5 11.6191 11.3809 10.5 10.0005 10.5V9.5C11.9332 9.5 13.5 11.0668 13.5 12.9995V17.5H0.5V12.9995Z" fill="#F2F5F0"/>
</svg>
