<svg width="29" height="28" viewBox="0 0 29 28" fill="none" xmlns="http://www.w3.org/2000/svg">
<path fill-rule="evenodd" clip-rule="evenodd" d="M14.2673 0.682927C6.91252 0.682927 0.950261 6.64518 0.950261 14C0.950261 21.3548 6.91252 27.3171 14.2673 27.3171C21.6222 27.3171 27.5844 21.3548 27.5844 14C27.5844 6.64518 21.6222 0.682927 14.2673 0.682927ZM0.267334 14C0.267334 6.26801 6.53535 0 14.2673 0C21.9993 0 28.2673 6.26801 28.2673 14C28.2673 21.732 21.9993 28 14.2673 28C6.53535 28 0.267334 21.732 0.267334 14Z" fill="#F2F5F0"/>
<path d="M18.7747 19.8732C20.8235 19.8732 22.4625 18.2341 22.4625 16.1854V11.7463C22.4625 9.69756 20.8235 8.05854 18.7747 8.05854H9.282C7.23322 8.05854 5.5942 9.69756 5.5942 11.7463V16.1854C5.5942 18.2341 7.23322 19.8732 9.282 19.8732H18.7747ZM12.2869 16.5951C12.082 16.6634 11.8771 16.5268 11.8771 16.322V11.8146C11.8771 11.6098 12.4235 11.4732 12.6283 11.6098L16.7259 13.7951C16.8625 13.8634 17.0674 14.1366 16.9308 14.2049L12.2869 16.5951Z" fill="#F2F5F0"/>
</svg>
