<svg xmlns="http://www.w3.org/2000/svg" width="24" height="24" viewBox="0 0 24 24">
  <g id="bookmark" transform="translate(-883 -442)">
    <rect id="Rectángulo_3" data-name="Rectángulo 3" width="24" height="24" transform="translate(883 442)" fill="#fff" opacity="0"/>
    <path id="Trazado_5" data-name="Trazado 5" d="M4.5,5A.5.5,0,0,1,5,4.5H17.063A2.436,2.436,0,0,1,19.5,6.937V18.63a.871.871,0,0,1-.87.87.5.5,0,0,1-.319-.115L12.19,14.323a.3.3,0,0,0-.375,0L5.689,19.385a.5.5,0,0,1-.319.115.871.871,0,0,1-.87-.87Zm1,.5V18.244l5.678-4.693h0a1.3,1.3,0,0,1,1.646,0h0L18.5,18.244V6.937A1.436,1.436,0,0,0,17.063,5.5Z" transform="translate(883.5 442.5)" fill="#f2f5f0" fill-rule="evenodd"/>
  </g>
</svg>
