<svg xmlns="http://www.w3.org/2000/svg" width="24" height="24" viewBox="0 0 24 24">
  <g id="download" transform="translate(-852 -471)">
    <rect id="Rectángulo_1" data-name="Rectángulo 1" width="24" height="24" transform="translate(852 471)" fill="#fff" opacity="0"/>
    <g id="download-2" data-name="download" transform="translate(849.938 469.937)">
      <path id="Trazado_1" data-name="Trazado 1" d="M14.074,17l4.279-4.279.8.8-5.074,5.074L9,13.512l.8-.8Z" fill="#f2f5f0" fill-rule="evenodd"/>
      <path id="Trazado_2" data-name="Trazado 2" d="M14.637,5.063V17H13.512V5.063Z" fill="#f2f5f0" fill-rule="evenodd"/>
      <path id="Trazado_3" data-name="Trazado 3" d="M5.063,20.25v-4.5H6.188v4.5a.562.562,0,0,0,.563.563H21.375a.562.562,0,0,0,.563-.562v-4.5h1.125v4.5a1.687,1.687,0,0,1-1.687,1.688H6.75A1.687,1.687,0,0,1,5.063,20.25Z" fill="#f2f5f0" fill-rule="evenodd"/>
    </g>
  </g>
</svg>
