<svg width="80" height="16" viewBox="0 0 80 16" fill="none" xmlns="http://www.w3.org/2000/svg">
    <path
        d="M7.35215 11.4411C7.34621 11.4443 7.34033 11.4475 7.33452 11.4508L4.97214 12.8147C4.93468 12.833 4.91055 12.8339 4.89998 12.8331C4.88781 12.8322 4.88081 12.8285 4.87678 12.8254C4.87264 12.8223 4.86857 12.8175 4.86574 12.8094C4.86329 12.8023 4.85839 12.783 4.86695 12.7471L4.86705 12.7471L4.86923 12.737L5.46255 9.99676C5.47008 9.96199 5.47388 9.92652 5.47388 9.89095C5.47388 9.88551 5.47388 9.88002 5.47388 9.8745C5.47394 9.76304 5.474 9.63428 5.45286 9.50115C5.42877 9.34943 5.38117 9.20965 5.30662 9.05314C5.27936 8.99592 5.24147 8.9444 5.19497 8.90133L3.19308 7.04725C3.17794 7.02906 3.17126 7.01187 3.16836 6.99605C3.16462 6.9757 3.1666 6.95336 3.17389 6.93347C3.18059 6.91518 3.18898 6.90618 3.19214 6.90339C3.19262 6.90336 3.1932 6.90335 3.1939 6.90335C3.21659 6.90335 3.23925 6.9018 3.26173 6.89872L5.96212 6.52901C6.16574 6.52201 6.35971 6.45927 6.52656 6.31916C6.68431 6.18669 6.78098 6.01436 6.84926 5.87103C6.85334 5.86246 6.85718 5.85378 6.86076 5.845L7.92218 3.24537C7.94474 3.20173 7.96709 3.1826 7.97828 3.17509C7.99038 3.16696 7.99751 3.16663 7.99984 3.16663C8.00217 3.16663 8.00929 3.16696 8.02139 3.17509C8.03258 3.1826 8.05494 3.20173 8.07749 3.24537L9.13891 5.845C9.1425 5.85378 9.14633 5.86246 9.15041 5.87103C9.21869 6.01437 9.31536 6.18669 9.47311 6.31916C9.63997 6.45927 9.83394 6.52201 10.0376 6.52901L12.7379 6.89872C12.7535 6.90085 12.7692 6.90225 12.7848 6.90291C12.7952 6.91405 12.8107 6.93617 12.8219 6.96921C12.8294 6.99131 12.8322 7.00985 12.8329 7.02314C12.8292 7.02636 12.8256 7.02964 12.822 7.03297L10.8047 8.90133C10.7971 8.90841 10.7896 8.91573 10.7824 8.92328C10.5933 9.12183 10.3525 9.56031 10.5475 10.0448L11.1304 12.737L11.1303 12.737L11.1327 12.7471C11.1413 12.783 11.1364 12.8023 11.1339 12.8094C11.1311 12.8175 11.127 12.8223 11.1229 12.8254C11.1189 12.8285 11.1119 12.8322 11.0997 12.8331C11.0891 12.8339 11.065 12.833 11.0275 12.8147L8.66515 11.4508C8.62656 11.4286 8.58517 11.4116 8.54207 11.4002C8.31162 11.3398 8.10336 11.2904 7.91084 11.2904C7.68055 11.2904 7.50923 11.3587 7.35215 11.4411Z"
        fill="#F2F5F0" stroke="#F2F5F0" stroke-miterlimit="10" stroke-linejoin="round" />
    <path
        d="M23.3522 11.4411C23.3462 11.4443 23.3403 11.4475 23.3345 11.4508L20.9721 12.8147C20.9347 12.833 20.9106 12.8339 20.9 12.8331C20.8878 12.8322 20.8808 12.8285 20.8768 12.8254C20.8726 12.8223 20.8686 12.8175 20.8657 12.8094C20.8633 12.8023 20.8584 12.783 20.8669 12.7471L20.8671 12.7471L20.8692 12.737L21.4626 9.99676C21.4701 9.96199 21.4739 9.92652 21.4739 9.89095C21.4739 9.88551 21.4739 9.88002 21.4739 9.8745C21.4739 9.76304 21.474 9.63428 21.4529 9.50115C21.4288 9.34943 21.3812 9.20965 21.3066 9.05314C21.2794 8.99592 21.2415 8.9444 21.195 8.90133L19.1931 7.04725C19.1779 7.02906 19.1713 7.01187 19.1684 6.99605C19.1646 6.9757 19.1666 6.95336 19.1739 6.93347C19.1806 6.91518 19.189 6.90618 19.1921 6.90339C19.1926 6.90336 19.1932 6.90335 19.1939 6.90335C19.2166 6.90335 19.2393 6.9018 19.2617 6.89872L21.9621 6.52901C22.1657 6.52201 22.3597 6.45927 22.5266 6.31916C22.6843 6.18669 22.781 6.01436 22.8493 5.87103C22.8533 5.86246 22.8572 5.85378 22.8608 5.845L23.9222 3.24537C23.9447 3.20173 23.9671 3.1826 23.9783 3.17509C23.9904 3.16696 23.9975 3.16663 23.9998 3.16663C24.0022 3.16663 24.0093 3.16696 24.0214 3.17509C24.0326 3.1826 24.0549 3.20173 24.0775 3.24537L25.1389 5.845C25.1425 5.85378 25.1463 5.86246 25.1504 5.87103C25.2187 6.01437 25.3154 6.18669 25.4731 6.31916C25.64 6.45927 25.8339 6.52201 26.0376 6.52901L28.7379 6.89872C28.7535 6.90085 28.7692 6.90225 28.7848 6.90291C28.7952 6.91405 28.8107 6.93617 28.8219 6.96921C28.8294 6.99131 28.8322 7.00985 28.8329 7.02314C28.8292 7.02636 28.8256 7.02964 28.822 7.03297L26.8047 8.90133C26.7971 8.90841 26.7896 8.91573 26.7824 8.92328C26.5933 9.12183 26.3525 9.56031 26.5475 10.0448L27.1304 12.737L27.1303 12.737L27.1327 12.7471C27.1413 12.783 27.1364 12.8023 27.1339 12.8094C27.1311 12.8175 27.127 12.8223 27.1229 12.8254C27.1189 12.8285 27.1119 12.8322 27.0997 12.8331C27.0891 12.8339 27.065 12.833 27.0275 12.8147L24.6652 11.4508C24.6266 11.4286 24.5852 11.4116 24.5421 11.4002C24.3116 11.3398 24.1034 11.2904 23.9108 11.2904C23.6805 11.2904 23.5092 11.3587 23.3522 11.4411Z"
        fill="#F2F5F0" stroke="#F2F5F0" stroke-miterlimit="10" stroke-linejoin="round" />
    <path
        d="M39.3522 11.4411C39.3462 11.4443 39.3403 11.4475 39.3345 11.4508L36.9721 12.8147C36.9347 12.833 36.9106 12.8339 36.9 12.8331C36.8878 12.8322 36.8808 12.8285 36.8768 12.8254C36.8726 12.8223 36.8686 12.8175 36.8657 12.8094C36.8633 12.8023 36.8584 12.783 36.8669 12.7471L36.8671 12.7471L36.8692 12.737L37.4626 9.99676C37.4701 9.96199 37.4739 9.92652 37.4739 9.89095C37.4739 9.88551 37.4739 9.88002 37.4739 9.8745C37.4739 9.76304 37.474 9.63428 37.4529 9.50115C37.4288 9.34943 37.3812 9.20965 37.3066 9.05314C37.2794 8.99592 37.2415 8.9444 37.195 8.90133L35.1931 7.04725C35.1779 7.02906 35.1713 7.01187 35.1684 6.99605C35.1646 6.9757 35.1666 6.95336 35.1739 6.93347C35.1806 6.91518 35.189 6.90618 35.1921 6.90339C35.1926 6.90336 35.1932 6.90335 35.1939 6.90335C35.2166 6.90335 35.2393 6.9018 35.2617 6.89872L37.9621 6.52901C38.1657 6.52201 38.3597 6.45927 38.5266 6.31916C38.6843 6.18669 38.781 6.01436 38.8493 5.87103C38.8533 5.86246 38.8572 5.85378 38.8608 5.845L39.9222 3.24537C39.9447 3.20173 39.9671 3.1826 39.9783 3.17509C39.9904 3.16696 39.9975 3.16663 39.9998 3.16663C40.0022 3.16663 40.0093 3.16696 40.0214 3.17509C40.0326 3.1826 40.0549 3.20173 40.0775 3.24537L41.1389 5.845C41.1425 5.85378 41.1463 5.86246 41.1504 5.87103C41.2187 6.01437 41.3154 6.18669 41.4731 6.31916C41.64 6.45927 41.8339 6.52201 42.0376 6.52901L44.7379 6.89872C44.7535 6.90085 44.7692 6.90225 44.7848 6.90291C44.7952 6.91405 44.8107 6.93617 44.8219 6.96921C44.8294 6.99131 44.8322 7.00985 44.8329 7.02314C44.8292 7.02636 44.8256 7.02964 44.822 7.03297L42.8047 8.90133C42.7971 8.90841 42.7896 8.91573 42.7824 8.92328C42.5933 9.12183 42.3525 9.56031 42.5475 10.0448L43.1304 12.737L43.1303 12.737L43.1327 12.7471C43.1413 12.783 43.1364 12.8023 43.1339 12.8094C43.1311 12.8175 43.127 12.8223 43.1229 12.8254C43.1189 12.8285 43.1119 12.8322 43.0997 12.8331C43.0891 12.8339 43.065 12.833 43.0275 12.8147L40.6652 11.4508C40.6266 11.4286 40.5852 11.4116 40.5421 11.4002C40.3116 11.3398 40.1034 11.2904 39.9108 11.2904C39.6805 11.2904 39.5092 11.3587 39.3522 11.4411Z"
        fill="#F2F5F0" stroke="#F2F5F0" stroke-miterlimit="10" stroke-linejoin="round" />
    <path
        d="M55.3522 11.4411C55.3462 11.4443 55.3403 11.4475 55.3345 11.4508L52.9721 12.8147C52.9347 12.833 52.9106 12.8339 52.9 12.8331C52.8878 12.8322 52.8808 12.8285 52.8768 12.8254C52.8726 12.8223 52.8686 12.8175 52.8657 12.8094C52.8633 12.8023 52.8584 12.783 52.8669 12.7471L52.8671 12.7471L52.8692 12.737L53.4626 9.99676C53.4701 9.96199 53.4739 9.92652 53.4739 9.89095C53.4739 9.88551 53.4739 9.88002 53.4739 9.8745C53.4739 9.76304 53.474 9.63428 53.4529 9.50115C53.4288 9.34943 53.3812 9.20965 53.3066 9.05314C53.2794 8.99592 53.2415 8.9444 53.195 8.90133L51.1931 7.04725C51.1779 7.02906 51.1713 7.01187 51.1684 6.99605C51.1646 6.9757 51.1666 6.95336 51.1739 6.93347C51.1806 6.91518 51.189 6.90618 51.1921 6.90339C51.1926 6.90336 51.1932 6.90335 51.1939 6.90335C51.2166 6.90335 51.2393 6.9018 51.2617 6.89872L53.9621 6.52901C54.1657 6.52201 54.3597 6.45927 54.5266 6.31916C54.6843 6.18669 54.781 6.01436 54.8493 5.87103C54.8533 5.86246 54.8572 5.85378 54.8608 5.845L55.9222 3.24537C55.9447 3.20173 55.9671 3.1826 55.9783 3.17509C55.9904 3.16696 55.9975 3.16663 55.9998 3.16663C56.0022 3.16663 56.0093 3.16696 56.0214 3.17509C56.0326 3.1826 56.0549 3.20173 56.0775 3.24537L57.1389 5.845C57.1425 5.85378 57.1463 5.86246 57.1504 5.87103C57.2187 6.01437 57.3154 6.18669 57.4731 6.31916C57.64 6.45927 57.8339 6.52201 58.0376 6.52901L60.7379 6.89872C60.7535 6.90085 60.7692 6.90225 60.7848 6.90291C60.7952 6.91405 60.8107 6.93617 60.8219 6.96921C60.8294 6.99131 60.8322 7.00985 60.8329 7.02314C60.8292 7.02636 60.8256 7.02964 60.822 7.03297L58.8047 8.90133C58.7971 8.90841 58.7896 8.91573 58.7824 8.92328C58.5933 9.12183 58.3525 9.56031 58.5475 10.0448L59.1304 12.737L59.1303 12.737L59.1327 12.7471C59.1413 12.783 59.1364 12.8023 59.1339 12.8094C59.1311 12.8175 59.127 12.8223 59.1229 12.8254C59.1189 12.8285 59.1119 12.8322 59.0997 12.8331C59.0891 12.8339 59.065 12.833 59.0275 12.8147L56.6652 11.4508C56.6266 11.4286 56.5852 11.4116 56.5421 11.4002C56.3116 11.3398 56.1034 11.2904 55.9108 11.2904C55.6805 11.2904 55.5092 11.3587 55.3522 11.4411Z"
        fill="#F2F5F0" stroke="#F2F5F0" stroke-miterlimit="10" stroke-linejoin="round" />
    <path
        d="M71.3522 11.4411C71.3462 11.4443 71.3403 11.4475 71.3345 11.4508L68.9721 12.8147C68.9347 12.833 68.9106 12.8339 68.9 12.8331C68.8878 12.8322 68.8808 12.8285 68.8768 12.8254C68.8726 12.8223 68.8686 12.8175 68.8657 12.8094C68.8633 12.8023 68.8584 12.783 68.8669 12.7471L68.8671 12.7471L68.8692 12.737L69.4626 9.99676C69.4701 9.96199 69.4739 9.92652 69.4739 9.89095C69.4739 9.88551 69.4739 9.88002 69.4739 9.8745C69.4739 9.76304 69.474 9.63428 69.4529 9.50115C69.4288 9.34943 69.3812 9.20965 69.3066 9.05314C69.2794 8.99592 69.2415 8.9444 69.195 8.90133L67.1931 7.04725C67.1779 7.02906 67.1713 7.01187 67.1684 6.99605C67.1646 6.9757 67.1666 6.95336 67.1739 6.93347C67.1806 6.91518 67.189 6.90618 67.1921 6.90339C67.1926 6.90336 67.1932 6.90335 67.1939 6.90335C67.2166 6.90335 67.2393 6.9018 67.2617 6.89872L69.9621 6.52901C70.1657 6.52201 70.3597 6.45927 70.5266 6.31916C70.6843 6.18669 70.781 6.01436 70.8493 5.87103C70.8533 5.86246 70.8572 5.85378 70.8608 5.845L71.9222 3.24537C71.9447 3.20173 71.9671 3.1826 71.9783 3.17509C71.9904 3.16696 71.9975 3.16663 71.9998 3.16663C72.0022 3.16663 72.0093 3.16696 72.0214 3.17509C72.0326 3.1826 72.0549 3.20173 72.0775 3.24537L73.1389 5.845C73.1425 5.85378 73.1463 5.86246 73.1504 5.87103C73.2187 6.01437 73.3154 6.18669 73.4731 6.31916C73.64 6.45927 73.8339 6.52201 74.0376 6.52901L76.7379 6.89872C76.7535 6.90085 76.7692 6.90225 76.7848 6.90291C76.7952 6.91405 76.8107 6.93617 76.8219 6.96921C76.8294 6.99131 76.8322 7.00985 76.8329 7.02314C76.8292 7.02636 76.8256 7.02964 76.822 7.03297L74.8047 8.90133C74.7971 8.90841 74.7896 8.91573 74.7824 8.92328C74.5933 9.12183 74.3525 9.56031 74.5475 10.0448L75.1304 12.737L75.1303 12.737L75.1327 12.7471C75.1413 12.783 75.1364 12.8023 75.1339 12.8094C75.1311 12.8175 75.127 12.8223 75.1229 12.8254C75.1189 12.8285 75.1119 12.8322 75.0997 12.8331C75.0891 12.8339 75.065 12.833 75.0275 12.8147L72.6652 11.4508C72.6266 11.4286 72.5852 11.4116 72.5421 11.4002C72.3116 11.3398 72.1034 11.2904 71.9108 11.2904C71.6805 11.2904 71.5092 11.3587 71.3522 11.4411Z"
        stroke="#068E87" stroke-miterlimit="10" stroke-linejoin="round" />
</svg>